<?xml version="1.0" standalone="no"?><!DOCTYPE svg PUBLIC "-//W3C//DTD SVG 1.1//EN" "http://www.w3.org/Graphics/SVG/1.1/DTD/svg11.dtd"><svg t="1573652894776" class="icon" viewBox="0 0 1024 1024" version="1.1" xmlns="http://www.w3.org/2000/svg" p-id="4604" xmlns:xlink="http://www.w3.org/1999/xlink" width="64" height="64"><defs><style type="text/css"></style></defs><path d="M143.872 878.08c0 36.352 29.184 73.216 73.216 73.216h614.4c36.352 0 73.216-29.184 73.216-73.216V461.824c0-44.032-36.864-73.216-73.216-73.216h-56.32V315.904c0-138.752-112.128-250.88-250.88-250.88s-250.88 112.128-250.88 250.88v72.704h-56.32c-44.032 0-73.216 36.352-73.216 73.216v416.256zM324.608 315.904c0-110.08 89.6-199.68 199.68-199.68s199.68 89.6 199.68 199.68v72.704h-399.36V315.904z m528.896 547.328c0 22.016-14.848 36.352-36.352 36.352H231.936c-22.016 0-36.352-14.848-36.352-36.352V476.16c0-22.016 14.848-36.352 36.352-36.352h585.216c22.016 0 36.352 14.848 36.352 36.352v387.072z" p-id="4605" fill="#ffffff"></path><path d="M638.464 806.912H471.552s93.696-73.216 137.728-117.248c39.424-39.424 51.2-70.656 48.128-111.616-4.096-56.32-57.856-94.208-119.808-94.208-92.16 0-142.848 56.32-142.848 119.296 0 23.552 10.24 33.792 28.16 33.792 11.264 0 20.992-12.288 20.992-27.136 0-45.056 30.72-82.944 83.968-82.944 47.616 0 79.872 23.04 80.896 60.928 0.512 24.576-14.336 44.544-39.936 69.12-44.544 43.52-102.912 93.184-159.232 140.8-9.216 7.68-25.088 20.48-25.088 37.376 0 13.312 11.776 19.456 30.72 19.456h223.232c13.824 0 27.136-8.704 27.136-21.504-1.024-16.384-11.264-26.112-27.136-26.112z" p-id="4606" fill="#ffffff"></path></svg>