<?xml version="1.0" standalone="no"?><!DOCTYPE svg PUBLIC "-//W3C//DTD SVG 1.1//EN" "http://www.w3.org/Graphics/SVG/1.1/DTD/svg11.dtd"><svg t="1573827753753" class="icon" viewBox="0 0 1024 1024" version="1.1" xmlns="http://www.w3.org/2000/svg" p-id="9438" xmlns:xlink="http://www.w3.org/1999/xlink" width="64" height="64"><defs><style type="text/css"></style></defs><path d="M605.184 995.328c0 15.36-23.04 28.16-51.2 28.16H146.944c-28.16 0-51.2-12.8-51.2-28.16s23.04-28.16 51.2-28.16h407.04c28.16 0 51.2 12.8 51.2 28.16z" fill="#727272" p-id="9439"></path><path d="M684.032 325.632m-247.296 0a247.296 247.296 0 1 0 494.592 0 247.296 247.296 0 1 0-494.592 0Z" fill="#FFF085" p-id="9440"></path><path d="M882.176 312.832c0-172.032-140.288-311.808-311.808-311.808S264.192 140.8 264.192 312.832c0 120.832 70.144 222.72 172.032 273.92C245.248 650.24 92.16 815.616 92.16 987.648c0 18.944 12.8 31.744 31.744 31.744 12.8 0 25.6-12.8 25.6-25.6 0-184.832 216.576-369.152 420.352-369.152 172.032 0 312.32-139.776 312.32-311.808z m-305.664 254.464c-140.288 0-254.464-114.688-254.464-254.464s114.688-254.464 254.464-254.464 254.464 114.688 254.464 254.464c-6.144 139.776-114.688 254.464-254.464 254.464zM913.92 995.328c0 15.36-23.04 28.16-51.2 28.16h-110.592c-28.16 0-51.2-12.8-51.2-28.16s23.04-28.16 51.2-28.16h110.592c28.16 0 51.2 12.8 51.2 28.16z" fill="#727272" p-id="9441"></path></svg>