<?xml version="1.0" standalone="no"?><!DOCTYPE svg PUBLIC "-//W3C//DTD SVG 1.1//EN" "http://www.w3.org/Graphics/SVG/1.1/DTD/svg11.dtd"><svg t="1573827757737" class="icon" viewBox="0 0 1024 1024" version="1.1" xmlns="http://www.w3.org/2000/svg" p-id="9566" xmlns:xlink="http://www.w3.org/1999/xlink" width="64" height="64"><defs><style type="text/css"></style></defs><path d="M97.5 794.5a426 152.5 0 1 0 852 0 426 152.5 0 1 0-852 0Z" fill="#61d9d9" p-id="9567"></path><path d="M511.5 960c-118.1 0-229.3-16.5-313.1-46.4-87-31.1-134.9-73.7-134.9-120.1s47.9-89 134.9-120.1c83.8-29.9 195-46.4 313.1-46.4s229.3 16.5 313.1 46.4c87 31.1 134.9 73.7 134.9 120.1 0 30.2-20.6 59.4-59.6 84.4-4.6 3-10.8 1.6-13.8-3s-1.6-10.8 3-13.8c23-14.8 50.4-38.5 50.4-67.6 0-36.7-44.3-73.6-121.7-101.2-81.6-29.2-190.4-45.3-306.3-45.3s-224.7 16.1-306.3 45.3c-77.3 27.6-121.7 64.5-121.7 101.2s44.3 73.6 121.7 101.2c81.7 29.2 190.5 45.3 306.3 45.3 93.5 0 182.4-10.4 257.2-30.2 5.3-1.4 10.8 1.8 12.2 7.1s-1.8 10.8-7.1 12.2C697.3 949.3 606.6 960 511.5 960z" fill="#222222" p-id="9568"></path><path d="M838.5 894m-16 0a16 16 0 1 0 32 0 16 16 0 1 0-32 0Z" fill="#222222" p-id="9569"></path><path d="M511.5 760c88.8 0 160.8 15.2 160.8 34s-72 34-160.8 34-160.8-15.2-160.8-34 72-34 160.8-34z" fill="#FFFFFF" p-id="9570"></path><path d="M511.5 838c-43.6 0-84.7-3.6-115.7-10.2-37.5-7.9-55-18.7-55-33.8s17.5-25.9 55-33.8c31-6.6 72.1-10.2 115.7-10.2s84.7 3.6 115.7 10.2c37.5 7.9 55 18.7 55 33.8s-17.5 25.9-55 33.8c-31 6.6-72.1 10.2-115.7 10.2z m-150.3-44c2.9 3 14.3 9.7 44.4 15.4 29 5.5 66.6 8.6 105.9 8.6s76.9-3.1 105.9-8.6c30.1-5.7 41.5-12.4 44.4-15.4-2.9-3-14.3-9.7-44.4-15.4-29-5.5-66.6-8.6-105.9-8.6s-76.9 3.1-105.9 8.6c-30.1 5.7-41.5 12.4-44.4 15.4z m301.2 0.9z" fill="#222222" p-id="9571"></path><path d="M511.4 83.5c165.3 0 299.4 134.1 299.4 299.6 0 250.1-299.4 398-299.4 398S212 633.2 212 383.1c0-165.5 134-299.6 299.4-299.6z" fill="#FFFFFF" p-id="9572"></path><path d="M529.1 83.5c165.3 0 299.4 134.1 299.4 299.6 0 250.1-299.4 398-299.4 398s-299.4-147.8-299.4-398c0-165.5 134.1-299.6 299.4-299.6z" fill="#FFDF00" p-id="9573"></path><path d="M511.4 802.1l-4.4-2.2c-3.2-1.6-79.1-39.4-156.3-109.7-45.5-41.4-81.7-85.5-107.8-131-32.8-57.3-49.4-117-49.4-177.4-0.1-76.4 27.4-150.3 77.5-208.1 3.6-4.2 9.9-4.6 14.1-1s4.6 9.9 1 14.1c-46.9 54.1-72.7 123.3-72.6 194.9 0 129.2 82 231 150.7 293.6 64.7 58.9 129.9 95.1 147.3 104.3 17.3-9.2 82.9-45.6 147.6-104.6 68.6-62.6 150.4-164.2 150.4-293.3 0-164.3-133.7-298-298-298h-0.4c-47.3 0-94.4 11.5-136.4 33.2-4.9 2.5-10.9 0.6-13.5-4.3-2.5-4.9-0.6-10.9 4.3-13.5 44.8-23.2 95.1-35.4 145.5-35.4h0.5c84.9 0 164.8 33.1 224.8 93.1 60.1 60.1 93.1 139.9 93.1 224.8 0 60.4-16.6 120.1-49.4 177.4-26.1 45.5-62.3 89.6-107.8 131-77.3 70.5-153.2 108.4-156.4 109.9l-4.4 2.2z" fill="#222222" p-id="9574"></path><path d="M511.5 378m-107.8 0a107.8 107.8 0 1 0 215.6 0 107.8 107.8 0 1 0-215.6 0Z" fill="#FFFFFF" p-id="9575"></path><path d="M531.5 378m-108 0a108 108 0 1 0 216 0 108 108 0 1 0-216 0Z" fill="#EB6877" p-id="9576"></path><path d="M511.5 505.1c-70.1 0-127.1-57-127.1-127.1s57-127.1 127.1-127.1 127.1 57 127.1 127.1-57 127.1-127.1 127.1z m0-234.2c-59.1 0-107.1 48.1-107.1 107.1s48.1 107.1 107.1 107.1c59.1 0 107.1-48.1 107.1-107.1s-48-107.1-107.1-107.1z" fill="#222222" p-id="9577"></path><path d="M317.5 140m-16 0a16 16 0 1 0 32 0 16 16 0 1 0-32 0Z" fill="#222222" p-id="9578"></path><path d="M171.5 251.4c-1.4 0-2.8-0.7-3.5-2.1l-16.7-30c-1.1-1.9-0.4-4.4 1.5-5.4 1.9-1.1 4.4-0.4 5.4 1.5l16.7 30c1.1 1.9 0.4 4.4-1.5 5.4-0.6 0.5-1.3 0.6-1.9 0.6z" fill="#00B7EE" p-id="9579"></path><path d="M148.1 244.8c-1.4 0-2.8-0.7-3.5-2.1-1.1-1.9-0.4-4.4 1.6-5.4l30-16.7c1.9-1.1 4.4-0.4 5.4 1.6 1.1 1.9 0.4 4.4-1.6 5.4l-30 16.7c-0.5 0.3-1.2 0.5-1.9 0.5z" fill="#00B7EE" p-id="9580"></path><path d="M754.6 89.8c-1.8 0-3.4-1.2-3.9-3l-7-26c-0.6-2.1 0.7-4.3 2.8-4.9 2.1-0.6 4.3 0.7 4.9 2.8l7 26c0.6 2.1-0.7 4.3-2.8 4.9-0.3 0.1-0.6 0.2-1 0.2z" fill="#ACD598" p-id="9581"></path><path d="M738.2 80.3c-1.8 0-3.4-1.2-3.9-3-0.6-2.1 0.7-4.3 2.8-4.9l26-7c2.1-0.6 4.3 0.7 4.9 2.8 0.6 2.1-0.7 4.3-2.8 4.9l-26 7c-0.3 0.1-0.7 0.2-1 0.2z" fill="#ACD598" p-id="9582"></path><path d="M927 476.1c-0.8 0-1.6-0.2-2.3-0.8L900 457.6c-1.8-1.3-2.2-3.8-0.9-5.6 1.3-1.8 3.8-2.2 5.6-0.9l24.7 17.8c1.8 1.3 2.2 3.8 0.9 5.6-0.8 1-2 1.6-3.3 1.6z" fill="#FFF100" p-id="9583"></path><path d="M905.8 479.6c-0.8 0-1.6-0.2-2.3-0.8-1.8-1.3-2.2-3.8-0.9-5.6l17.7-24.7c1.3-1.8 3.8-2.2 5.6-0.9 1.8 1.3 2.2 3.8 0.9 5.6L909 477.9c-0.7 1.1-2 1.7-3.2 1.7z" fill="#FFF100" p-id="9584"></path><path d="M131 509.9c-7.2 0-13.1-5.9-13.1-13.1s5.9-13.1 13.1-13.1 13.1 5.9 13.1 13.1-5.9 13.1-13.1 13.1z m0-20.4c-4 0-7.3 3.3-7.3 7.3s3.3 7.3 7.3 7.3 7.3-3.3 7.3-7.3-3.3-7.3-7.3-7.3z" fill="#EB6877" p-id="9585"></path><path d="M172.3 626.5c-7.8 0-14.1-6.4-14.1-14.1s6.4-14.1 14.1-14.1 14.1 6.4 14.1 14.1-6.3 14.1-14.1 14.1z m0-23.5c-5.2 0-9.4 4.2-9.4 9.4s4.2 9.4 9.4 9.4 9.4-4.2 9.4-9.4-4.2-9.4-9.4-9.4z" fill="#7EDDDC" p-id="9586"></path><path d="M48.5 681m-8 0a8 8 0 1 0 16 0 8 8 0 1 0-16 0Z" fill="#F6B37F" p-id="9587"></path><path d="M975.5 368.5c-9.1 0-16.5-7.4-16.5-16.5s7.4-16.5 16.5-16.5S992 342.9 992 352s-7.4 16.5-16.5 16.5z m0-26.4c-5.4 0-9.9 4.5-9.9 9.9s4.5 9.9 9.9 9.9 9.9-4.5 9.9-9.9-4.5-9.9-9.9-9.9z" fill="#57EBBF" p-id="9588"></path><path d="M853 312.5m-4.5 0a4.5 4.5 0 1 0 9 0 4.5 4.5 0 1 0-9 0Z" fill="#D3D462" p-id="9589"></path><path d="M139.5 91m-4 0a4 4 0 1 0 8 0 4 4 0 1 0-8 0Z" fill="#FF455C" p-id="9590"></path><path d="M143.8 352.3m-6 0a6 6 0 1 0 12 0 6 6 0 1 0-12 0Z" fill="#71E7DB" p-id="9591"></path><path d="M63.5 111c-3.6 0-7.2-1.3-9.9-4.1-5.5-5.5-5.5-14.3 0-19.8l0.1-0.1c5.5-5.4 14.3-5.4 19.8 0.1 2.7 2.7 4.1 6.2 4.1 9.9 0 3.8-1.5 7.3-4.1 9.9-2.9 2.8-6.4 4.1-10 4.1z m-6.4-20.2c-3.4 3.5-3.4 9.1 0.1 12.5 3.5 3.5 9.1 3.5 12.6 0 1.7-1.7 2.6-3.9 2.6-6.3s-1-4.6-2.6-6.3c-3.5-3.4-9.2-3.4-12.7 0.1z m-1.8-1.9z" fill="#FF8A8A" p-id="9592"></path><path d="M48.5 410c-9.9 0-18-8.1-18-18s8.1-18 18-18 18 8.1 18 18-8.1 18-18 18z m0-29.7c-6.5 0-11.7 5.2-11.7 11.7s5.2 11.7 11.7 11.7 11.7-5.2 11.7-11.7-5.2-11.7-11.7-11.7z" fill="#B3D465" p-id="9593"></path><path d="M66.5 234m-8 0a8 8 0 1 0 16 0 8 8 0 1 0-16 0Z" fill="#CC9EE1" p-id="9594"></path><path d="M844 132.5m-3.5 0a3.5 3.5 0 1 0 7 0 3.5 3.5 0 1 0-7 0Z" fill="#D3A884" p-id="9595"></path><path d="M67 550.5m-3.5 0a3.5 3.5 0 1 0 7 0 3.5 3.5 0 1 0-7 0Z" fill="#D3A884" p-id="9596"></path><path d="M910 568.5m-3.5 0a3.5 3.5 0 1 0 7 0 3.5 3.5 0 1 0-7 0Z" fill="#22B4FF" p-id="9597"></path><path d="M974 688.5m-7.5 0a7.5 7.5 0 1 0 15 0 7.5 7.5 0 1 0-15 0Z" fill="#F2ED62" p-id="9598"></path><path d="M260 41.5m-7.5 0a7.5 7.5 0 1 0 15 0 7.5 7.5 0 1 0-15 0Z" fill="#FFD200" p-id="9599"></path><path d="M935.5 73c-5.1 0-10.2-1.9-14.2-5.9-3.8-3.8-5.9-8.8-5.9-14.2s2.1-10.4 5.8-14.2l0.1-0.1c3.8-3.8 8.8-5.9 14.2-5.9 5.3 0 10.4 2.1 14.2 5.9 7.8 7.8 7.8 20.5 0 28.3-4 4.2-9.1 6.1-14.2 6.1z m-9.9-30c-2.7 2.7-4.2 6.2-4.2 10s1.5 7.3 4.2 9.9c5.5 5.5 14.5 5.5 19.9 0s5.5-14.5 0-19.9c-2.7-2.7-6.2-4.2-9.9-4.2-3.9 0.1-7.4 1.5-10 4.2z" fill="#FF8700" p-id="9600"></path><path d="M239.8 123.9m-8 0a8 8 0 1 0 16 0 8 8 0 1 0-16 0Z" fill="#EBB4BE" p-id="9601"></path><path d="M828.4 634.4c-4.2 0-8-1.6-10.9-4.6-6-6-6-15.9 0-22 6-6 15.9-6 22 0 2.9 2.9 4.6 6.9 4.6 10.9 0 4.2-1.6 8-4.6 10.9-3.1 3.2-6.9 4.8-11.1 4.8z m-6.4-21.9c-3.5 3.5-3.5 9.2 0 12.7 1.7 1.7 3.9 2.6 6.4 2.6 2.4 0 4.7-0.9 6.4-2.6s2.6-3.9 2.6-6.4c0-2.4-0.9-4.7-2.6-6.4-3.5-3.4-9.2-3.4-12.8 0.1z" fill="#FF8A8A" p-id="9602"></path><path d="M927.7 209.4m-9 0a9 9 0 1 0 18 0 9 9 0 1 0-18 0Z" fill="#A657FF" p-id="9603"></path></svg>