<?xml version="1.0" standalone="no"?><!DOCTYPE svg PUBLIC "-//W3C//DTD SVG 1.1//EN" "http://www.w3.org/Graphics/SVG/1.1/DTD/svg11.dtd"><svg t="1573872321592" class="icon" viewBox="0 0 1024 1024" version="1.1" xmlns="http://www.w3.org/2000/svg" p-id="19262" xmlns:xlink="http://www.w3.org/1999/xlink" width="64" height="64"><defs><style type="text/css"></style></defs><path d="M438.857143 716.8c-21.942857 9.752381-48.761905 46.32381-48.761905 73.142857v146.285714c0 31.695238-17.066667 48.761905-48.761905 48.761905H73.142857c-31.695238 0-48.761905-21.942857-48.761905-53.638095V731.428571c0-14.628571 9.752381-36.571429 26.819048-41.447619 95.085714-68.266667 199.92381-99.961905 316.952381-99.961904 90.209524 0 173.104762 21.942857 253.561905 58.514285-85.333333 9.752381-109.714286 21.942857-182.857143 68.266667z m-70.704762-258.438095c-117.028571 0-212.114286-95.085714-212.114286-212.114286s95.085714-212.114286 212.114286-212.114286 212.114286 95.085714 212.114286 212.114286c-2.438095 119.466667-97.52381 212.114286-212.114286 212.114286z" fill="#F4567B" p-id="19263"></path><path d="M736.304762 616.838095c-90.209524 0-158.47619-68.266667-158.476191-158.47619s68.266667-158.47619 158.476191-158.476191 158.47619 68.266667 158.47619 158.476191-68.266667 158.47619-158.47619 158.47619zM463.238095 936.228571v-121.904761c0-14.628571 19.504762-41.447619 36.571429-46.32381 73.142857-46.32381 153.6-68.266667 236.495238-68.266667 85.333333 0 163.352381 21.942857 236.495238 68.266667 14.628571 9.752381 26.819048 31.695238 26.819048 46.32381v121.904761c0 31.695238-17.066667 48.761905-48.761905 48.761905H512c-31.695238 0-48.761905-17.066667-48.761905-48.761905z" fill="#3FBFF9" p-id="19264"></path></svg>