<?xml version="1.0" standalone="no"?><!DOCTYPE svg PUBLIC "-//W3C//DTD SVG 1.1//EN" "http://www.w3.org/Graphics/SVG/1.1/DTD/svg11.dtd"><svg t="1573871438240" class="icon" viewBox="0 0 1024 1024" version="1.1" xmlns="http://www.w3.org/2000/svg" p-id="6727" xmlns:xlink="http://www.w3.org/1999/xlink" width="64" height="64"><defs><style type="text/css"></style></defs><path d="M511.879529 78.757647C273.046588 78.757647 78.727529 273.106824 78.727529 512c0 238.863059 194.319059 433.242353 433.152 433.242353 238.863059 0 433.152-194.379294 433.152-433.242353 0-238.893176-194.258824-433.242353-433.152-433.242353m0 945.242353C229.616941 1024 0 794.322824 0 512 0 229.677176 229.616941 0 511.879529 0s511.879529 229.677176 511.87953 512c0 282.322824-229.616941 512-511.87953 512" fill="#3399FF" p-id="6728"></path><path d="M452.818824 742.490353a59.090824 59.090824 0 0 0 88.576 51.2c18.311529-10.541176 29.575529-30.087529 29.545411-51.2a58.940235 58.940235 0 0 0-29.515294-51.169882 59.090824 59.090824 0 0 0-88.576 51.169882m237.748706-341.383529a178.898824 178.898824 0 0 0-178.688-178.718118 178.898824 178.898824 0 0 0-178.688 178.718118 44.423529 44.423529 0 1 0 88.816941 0 89.961412 89.961412 0 0 1 89.871059-89.871059 89.961412 89.961412 0 0 1 89.871059 89.871059 89.931294 89.931294 0 0 1-88.847059 89.750588h-10.872471c-21.744941 0-39.363765 17.618824-39.363764 39.393882v94.629647h98.42447v-52.103529c74.661647-21.473882 129.475765-90.202353 129.475765-171.670588" fill="#0080FF" p-id="6729"></path></svg>