<?xml version="1.0" standalone="no"?><!DOCTYPE svg PUBLIC "-//W3C//DTD SVG 1.1//EN" "http://www.w3.org/Graphics/SVG/1.1/DTD/svg11.dtd"><svg t="1573871409966" class="icon" viewBox="0 0 1024 1024" version="1.1" xmlns="http://www.w3.org/2000/svg" p-id="6472" xmlns:xlink="http://www.w3.org/1999/xlink" width="64" height="64"><defs><style type="text/css"></style></defs><path d="M937.6 1024H86.4C38.4 1024 0 985.6 0 937.6V544c0-35.2 28.8-64 64-64h80l128 160h483.2l121.6-156.8c3.2-3.2 6.4-3.2 9.6-3.2H960c35.2 0 64 28.8 64 64v393.6c0 48-38.4 86.4-86.4 86.4zM64 544v393.6c0 12.8 9.6 22.4 22.4 22.4h848c12.8 0 22.4-9.6 22.4-22.4V544h-48l-124.8 160h-544l-131.2-160H64z" fill="#454545" p-id="6473"></path><path d="M736 192H288c-19.2 0-32 12.8-32 32s12.8 32 32 32h448c19.2 0 32-12.8 32-32s-12.8-32-32-32zM672 384H352c-19.2 0-32 12.8-32 32s12.8 32 32 32h320c19.2 0 32-12.8 32-32s-12.8-32-32-32z" fill="#D93934" p-id="6474"></path><path d="M128 515.2V96c0-19.2 12.8-32 32-32h704c19.2 0 32 12.8 32 32v419.2h64V96c0-54.4-41.6-96-96-96H160C105.6 0 64 41.6 64 96v419.2h64z" fill="#454545" p-id="6475"></path></svg>