<?xml version="1.0" standalone="no"?><!DOCTYPE svg PUBLIC "-//W3C//DTD SVG 1.1//EN" "http://www.w3.org/Graphics/SVG/1.1/DTD/svg11.dtd"><svg t="1573872331913" class="icon" viewBox="0 0 1024 1024" version="1.1" xmlns="http://www.w3.org/2000/svg" p-id="19520" xmlns:xlink="http://www.w3.org/1999/xlink" width="64" height="64"><defs><style type="text/css"></style></defs><path d="M31.030303 496.484848v15.515152c0 265.309091 215.660606 480.969697 480.969697 480.969697s480.969697-215.660606 480.969697-480.969697v-15.515152H31.030303z" fill="#70CFC2" p-id="19521"></path><path d="M512 0C229.624242 0 0 229.624242 0 512s229.624242 512 512 512 512-229.624242 512-512S794.375758 0 512 0z m0 977.454545C256 977.454545 46.545455 768 46.545455 512S256 46.545455 512 46.545455s465.454545 209.454545 465.454545 465.454545-209.454545 465.454545-465.454545 465.454545z m124.121212-397.187878c0 51.2-32.581818 94.642424-93.090909 105.50303V744.727273h-51.2v-54.303031c-35.684848-1.551515-68.266667-12.412121-88.436364-24.824242l15.515152-66.715152c21.721212 12.412121 52.751515 24.824242 86.884848 24.824243 31.030303 0 51.2-12.412121 51.2-35.684849 0-21.721212-17.066667-35.684848-55.854545-49.648484-55.854545-20.169697-94.642424-49.648485-94.642424-103.951516 0-51.2 32.581818-89.987879 88.436363-100.848484V279.272727h51.2v49.648485c34.133333 1.551515 57.406061 9.309091 76.024243 18.618182l-15.515152 65.163636c-12.412121-6.206061-37.236364-20.169697-74.472727-20.169697-34.133333 0-44.993939 17.066667-44.993939 32.581819 0 18.618182 18.618182 31.030303 63.612121 48.096969 60.509091 24.824242 85.333333 55.854545 85.333333 107.054546z" fill="#1B9E8C" p-id="19522"></path></svg>