<?xml version="1.0" standalone="no"?><!DOCTYPE svg PUBLIC "-//W3C//DTD SVG 1.1//EN" "http://www.w3.org/Graphics/SVG/1.1/DTD/svg11.dtd"><svg t="1573785447620" class="icon" viewBox="0 0 1024 1024" version="1.1" xmlns="http://www.w3.org/2000/svg" p-id="13459" width="48" height="48" xmlns:xlink="http://www.w3.org/1999/xlink"><defs><style type="text/css"></style></defs><path d="M924.009412 695.296c-66.258824-66.258824-126.494118-78.305882-150.588236-60.235294-12.047059 6.023529-60.235294 60.235294-60.235294 60.235294-12.047059 12.047059-30.117647 18.070588-42.164706 18.070588 0 0-84.389647 0-241.061647-150.588235-150.588235-156.732235-150.588235-241.061647-150.588235-241.061647 0-12.047059 6.023529-30.117647 18.070588-42.164706l60.235294-60.235294c24.094118-30.117647-12.047059-96.376471-60.235294-150.588235-30.117647-36.201412-54.211765-54.272-96.37647-66.319059-60.235294-12.047059-168.719059 66.258824-168.719059 138.541176 0 0-42.164706 216.907294 277.082353 536.274824l6.023529 6.023529 6.02353 6.02353c319.367529 319.247059 536.274824 277.082353 536.274823 277.082353 12.047059 0 42.164706-12.047059 48.188236-18.070589 0 0 48.188235-42.164706 78.305882-90.352941 30.117647-54.211765-24.094118-126.494118-60.235294-162.635294z" fill="#51BA2D" p-id="13460"></path><path d="M546.273882 314.187294c-19.576471 0-34.273882 14.697412-34.273882 29.394824 0 19.576471 14.697412 34.273882 34.273882 34.273882 34.213647 0 63.608471 29.334588 63.608471 63.608471 0 19.576471 14.697412 34.213647 34.273882 34.213647a33.430588 33.430588 0 0 0 34.213647-34.213647C673.490824 372.856471 614.761412 314.187294 546.334118 314.187294zM546.273882 100.833882A33.430588 33.430588 0 0 0 512 135.047529c0 19.576471 14.697412 34.334118 34.273882 34.334118a294.490353 294.490353 0 0 1 293.586824 293.586824c0 14.637176 14.697412 29.334588 29.394823 29.334588a33.430588 33.430588 0 0 0 34.273883-34.273883c0-195.764706-161.551059-357.195294-357.25553-357.195294z" fill="#51BA2D" p-id="13461"></path></svg>