<?xml version="1.0" standalone="no"?><!DOCTYPE svg PUBLIC "-//W3C//DTD SVG 1.1//EN" "http://www.w3.org/Graphics/SVG/1.1/DTD/svg11.dtd"><svg t="1573662282417" class="icon" viewBox="0 0 1024 1024" version="1.1" xmlns="http://www.w3.org/2000/svg" p-id="8323" width="32" height="32" xmlns:xlink="http://www.w3.org/1999/xlink"><defs><style type="text/css"></style></defs><path d="M782.336 58.88H242.688c-19.456 0-35.84 16.384-35.84 35.84v143.36c0 19.968 13.312 45.568 29.184 57.344l161.792 116.736c6.144 4.096 11.264 6.144 15.872 5.632 2.048 0.512 4.096 0.512 6.144 0.512h179.712c3.072 0 5.632-0.512 8.192-1.024 5.12 1.536 11.264-0.512 18.432-5.12l161.792-116.736c16.384-11.776 29.184-37.376 29.184-57.344v-143.36c1.024-19.456-15.36-35.84-34.816-35.84z m-324.096 296.96c0 14.848-11.776 27.136-27.136 27.136-14.848 0-27.136-11.776-27.136-27.136V121.856c0-14.848 11.776-27.136 27.136-27.136 14.848 0 27.136 11.776 27.136 27.136v233.984z m161.792 0c0 14.848-11.776 27.136-27.136 27.136-14.848 0-27.136-11.776-27.136-27.136V121.856c0-14.848 11.776-27.136 27.136-27.136 14.848 0 27.136 11.776 27.136 27.136v233.984zM512.512 454.656c-139.264 0-251.904 112.64-251.904 251.904 0 139.264 112.64 251.904 251.904 251.904 139.264 0 251.904-112.64 251.904-251.904-0.512-139.264-113.152-251.904-251.904-251.904z m0 438.272c-102.912 0-186.368-83.456-186.368-186.368 0-102.912 83.456-186.368 186.368-186.368 102.912 0 186.368 83.456 186.368 186.368s-83.456 186.368-186.368 186.368z" fill="#FF6A00" p-id="8324"></path><path d="M393.158438 716.644503a119.812792 119.812792 0 1 0 238.777467-20.143038 119.812792 119.812792 0 1 0-238.777467 20.143038Z" fill="#FF6A00" p-id="8325"></path></svg>