<?xml version="1.0" standalone="no"?><!DOCTYPE svg PUBLIC "-//W3C//DTD SVG 1.1//EN" "http://www.w3.org/Graphics/SVG/1.1/DTD/svg11.dtd"><svg t="1575166911910" class="icon" viewBox="0 0 1030 1024" version="1.1" xmlns="http://www.w3.org/2000/svg" p-id="1971" xmlns:xlink="http://www.w3.org/1999/xlink" width="64.375" height="64"><defs><style type="text/css"></style></defs><path d="M1007.899371 22.540881A75.350943 75.350943 0 0 0 901.63522 21.896855l-208.020126 206.732076h-7.728302a193.207547 193.207547 0 0 0-242.153459 21.896855 5.796226 5.796226 0 0 0 0 7.728302L772.830189 586.062893a5.152201 5.152201 0 0 0 7.728302 0 193.207547 193.207547 0 0 0 21.896855-242.153459 38.641509 38.641509 0 0 1 0-7.728302L1007.899371 128.805031a75.350943 75.350943 0 0 0 0-106.26415z m-27.049057 80.503144L764.457862 322.012579v25.761006l5.152201 18.676729A158.430189 158.430189 0 0 1 772.830189 532.608805L497.187421 257.610063a143.61761 143.61761 0 0 1 76.638994-22.540881 189.343396 189.343396 0 0 1 92.739623 27.049057l10.948427 6.440252 34.133334-3.864151L927.396226 49.589937a37.997484 37.997484 0 0 1 27.049057-10.948428 37.353459 37.353459 0 0 1 37.353459 37.35346 37.997484 37.997484 0 0 1-10.948428 27.049056z" fill="#1E59E4" p-id="1972"></path><path d="M954.445283 38.641509a37.997484 37.997484 0 0 0-27.049057 10.948428l-215.748427 215.748428-34.133334 3.864151-10.948427-6.440252a189.343396 189.343396 0 0 0-92.739623-27.049056A143.61761 143.61761 0 0 0 497.187421 257.610063L772.830189 532.608805a158.430189 158.430189 0 0 0-5.152202-169.378616l-5.152201-18.67673v-25.761006l218.324528-215.748428a37.997484 37.997484 0 0 0 10.948428-27.049056 37.353459 37.353459 0 0 0-37.353459-37.35346z" fill="#E1F0FF" p-id="1973"></path><path d="M315.572327 235.069182a64.402516 64.402516 0 1 0-64.402516-64.402515 64.402516 64.402516 0 0 0 64.402516 64.402515z m0-91.451572a26.405031 26.405031 0 0 1 0 52.810063 26.405031 26.405031 0 0 1 0-52.810063zM727.104403 808.895597A81.14717 81.14717 0 0 0 644.025157 890.042767a81.791195 81.791195 0 0 0 162.938365 0 80.503145 80.503145 0 0 0-79.859119-81.14717z m30.269182 112.060378a43.149686 43.149686 0 0 1-73.418868-30.269183 43.149686 43.149686 0 1 1 85.655346 0 45.725786 45.725786 0 0 1-12.236478 30.269183zM871.366038 759.30566a44.437736 44.437736 0 1 0 44.437736 44.437736 44.437736 44.437736 0 0 0-44.437736-44.437736z m0 50.877988a6.440252 6.440252 0 0 1-5.796227-6.440252 5.796226 5.796226 0 0 1 11.592453 0 6.440252 6.440252 0 0 1-5.796226 6.440252z" fill="#FF5A07" p-id="1974"></path><path d="M712.291824 637.584906L386.415094 311.708176a7.084277 7.084277 0 0 0-9.016352 0A1266.797484 1266.797484 0 0 1 0 442.445283v3.864151l59.250314 110.128302 159.074214-56.674214S108.196226 597.011321 88.231447 613.11195a1041.388679 1041.388679 0 0 0 100.467924 124.94088h3.220126l208.664151-123.008805S277.574843 772.830189 253.745912 803.743396a889.398742 889.398742 0 0 0 152.633962 128.805032l29.625157-40.573585a1360.181132 1360.181132 0 0 1 128.805032-159.074214c10.304403-10.304403-89.519497 198.359748-99.823899 220.256604L579.622642 1024h3.220125a977.630189 977.630189 0 0 1 128.805032-375.466667 7.728302 7.728302 0 0 0 0.644025-10.948427zM552.573585 966.037736L515.220126 940.920755c98.535849-206.08805 97.891824-207.376101 84.367295-228.628931l-11.592452-18.032705h-36.065409l-11.592453 14.168554a1481.257862 1481.257862 0 0 0-135.889308 164.87044l-7.084277 9.016352a913.871698 913.871698 0 0 1-94.027673-75.994968c44.437736-56.674214 128.805031-165.514465 128.805032-165.514466L380.618868 579.622642l-183.54717 112.060377c-24.472956-27.049057-44.437736-51.522013-58.606289-70.198742l107.552201-90.807547-37.997484-64.402516-128.805032 45.725786-21.896855-41.861635a1300.286792 1300.286792 0 0 0 322.012579-113.348428l291.743396 291.099371A1040.744654 1040.744654 0 0 0 552.573585 966.037736z" fill="#1E59E4" p-id="1975"></path><path d="M57.318239 470.138365l21.25283 40.573585 128.805032-45.725786 37.997484 64.402515-106.908176 92.095598c14.168553 18.67673 34.133333 43.149686 58.606289 70.198742L380.618868 579.622642l50.877987 56.674213s-83.72327 108.840252-128.805031 165.514466a913.871698 913.871698 0 0 0 94.027673 75.994968l7.084277-9.016352A1481.257862 1481.257862 0 0 1 540.337107 708.427673l11.592453-11.592453h37.353459l11.592453 18.032705c13.524528 21.25283 14.168553 22.540881-84.367296 228.62893l36.065409 21.896856a1040.744654 1040.744654 0 0 1 115.280503-314.928302L376.110692 356.789937A1300.286792 1300.286792 0 0 1 57.318239 470.138365z" fill="#E1F0FF" p-id="1976"></path></svg>