<?xml version="1.0" standalone="no"?><!DOCTYPE svg PUBLIC "-//W3C//DTD SVG 1.1//EN" "http://www.w3.org/Graphics/SVG/1.1/DTD/svg11.dtd"><svg t="1573871397612" class="icon" viewBox="0 0 1024 1024" version="1.1" xmlns="http://www.w3.org/2000/svg" p-id="6216" xmlns:xlink="http://www.w3.org/1999/xlink" width="64" height="64"><defs><style type="text/css"></style></defs><path d="M0 161.792l215.03999999 0C215.552 199.68 246.272 230.4 284.672 230.4S353.28 199.68 353.792 161.792l648.192 0 0 30.72c-15.872 0-28.672 13.312-29.184 29.69600001 0 16.384 13.31200001 29.696 29.184 29.69599999L1001.984 281.6c-15.872 0-28.672 13.312-29.184 29.696 0 16.384 13.31200001 29.696 29.184 29.696l0 29.696c-15.872 0-28.672 13.312-29.184 29.696 0 16.384 13.31200001 29.696 29.184 29.696l0 29.696c-15.872 0-28.672 13.312-29.184 29.696 0 16.384 13.31200001 29.696 29.184 29.696l0 29.696c-15.872 0-28.672 13.312-29.184 29.69600001 0 16.384 13.31200001 29.696 29.184 29.69599999L1001.984 637.44c-15.872 0-28.672 13.312-29.184 29.69600001 0 16.384 13.31200001 29.696 29.184 29.69599999l0 29.696c-23.04 0-29.184 20.48-29.184 29.696 0 16.384 12.8 29.69599999 29.184 29.696l0 36.352L353.792 822.272c-0.512-37.888-31.232-68.60799999-69.632-68.60800001s-69.12 30.72-69.632 68.60800001L0 822.272l0-36.352c15.36-0.512 28.16-13.824 28.16-29.696 0-9.21600001-7.168-29.696-28.16-29.696l0-29.696c15.36-0.512 28.16-13.312 28.16-29.69599999 0-15.872-12.8-28.672-28.16-29.69600001l0-29.696c15.36-0.512 28.16-13.312 28.16-29.69600001 0-15.872-12.8-28.672-28.16-29.69599999L0 517.12c15.36-0.512 28.16-13.312 28.16000001-29.696 0-15.872-12.8-28.672-28.16000001-29.696l0-29.696c15.36-0.512 28.16-13.312 28.16-29.696C28.16 382.464 15.36 369.664 0 368.64l0-29.696c15.36-0.512 28.16-13.312 28.16-29.696C28.16 294.39999999 15.36 281.6 0 281.088l0-29.696c15.36-0.512 28.16-13.312 28.16000001-29.696 0-15.872-12.8-28.672-28.16000001-29.696l0-30.208z" fill="#FF4501" p-id="6217"></path><path d="M521.83907004 518.21642766L509.19311808 518.21642766c-0.07991123 0-0.14983355-0.06992233-0.14983355-0.14983355-0.0099889-0.65926763-0.5493897-1.18867953-1.20865731-1.18867952s-1.19866843 0.52941188-1.20865736 1.18867952c0 0.07991123-0.06992233 0.14983355-0.14983355 0.14983355l-4.1953395 0c-0.07991123 0-0.14983355-0.06992233-0.14983355-0.14983355l0-0.70921217c0-0.07991123 0.05993343-0.14983355 0.13984465-0.14983353 0.22974477-0.0099889 0.40954507-0.19977808 0.40954504-0.42952286 0-0.08990014-0.06992233-0.42952285-0.39955614-0.42952285-0.07991123 0-0.14983355-0.06992233-0.14983355-0.14983357l0-0.57935639c0-0.07991123 0.05993343-0.14983355 0.13984465-0.14983357 0.21975587-0.0099889 0.39955614-0.19977808 0.40954504-0.42952286 0-0.22974477-0.17980027-0.41953395-0.40954504-0.42952283-0.07991123 0-0.13984463-0.06992233-0.13984465-0.14983356L502.13096326 513.88124351c0-0.07991123 0.05993343-0.14983355 0.13984465-0.14983356 0.21975587-0.0099889 0.39955614-0.19977808 0.40954505-0.42952286 0-0.22974477-0.17980027-0.41953395-0.40954505-0.42952284-0.07991123 0-0.13984463-0.06992233-0.13984465-0.14983355l0-0.57935641c0-0.07991123 0.05993343-0.14983355 0.13984465-0.14983355 0.21975587-0.0099889 0.39955614-0.19977808 0.40954505-0.42952285 0-0.22974477-0.17980027-0.41953395-0.40954505-0.42952287-0.07991123 0-0.13984463-0.06992233-0.13984465-0.14983356l0-0.5793564c0-0.07991123 0.05993343-0.14983355 0.13984465-0.14983357 0.21975587-0.0099889 0.39955614-0.19977808 0.40954505-0.42952284 0-0.22974477-0.17980027-0.41953395-0.40954505-0.42952285-0.07991123 0-0.13984463-0.06992233-0.13984465-0.14983356l0-0.57935641c0-0.07991123 0.05993343-0.14983355 0.13984465-0.14983355 0.21975587-0.0099889 0.39955614-0.19977808 0.40954505-0.42952286 0-0.22974477-0.17980027-0.41953395-0.40954505-0.42952284-0.07991123 0-0.13984463-0.06992233-0.13984465-0.14983356l0-0.5793564c0-0.07991123 0.05993343-0.14983355 0.13984465-0.14983356 0.21975587-0.0099889 0.39955614-0.19977808 0.40954505-0.42952285 0-0.22974477-0.17980027-0.41953395-0.40954505-0.42952287-0.07991123 0-0.13984463-0.06992233-0.13984465-0.14983354l0-0.59933423c0-0.07991123 0.06992233-0.14983355 0.14983354-0.14983354l4.19533951 0c0.07991123 0 0.14983355 0.06992233 0.14983355 0.14983354 0.0099889 0.65926763 0.5493897 1.18867953 1.20865736 1.18867954s1.19866843-0.52941188 1.20865731-1.18867954c0-0.07991123 0.06992233-0.14983355 0.14983355-0.14983354l12.64595195 0c0.07991123 0 0.14983355 0.06992233 0.14983355 0.14983354l0 0.59933423c0 0.07991123-0.06992233 0.14983355-0.14983355 0.14983354-0.22974477 0-0.41953395 0.18978918-0.41953396 0.42952287 0 0.22974477 0.18978918 0.42952285 0.41953396 0.42952285 0.07991123 0 0.14983355 0.06992233 0.14983355 0.14983356l0 0.5793564c0 0.07991123-0.06992233 0.14983355-0.14983355 0.14983356-0.22974477 0-0.41953395 0.18978918-0.41953396 0.42952284 0 0.22974477 0.18978918 0.42952285 0.41953396 0.42952286 0.07991123 0 0.14983355 0.06992233 0.14983355 0.14983355l0 0.57935641c0 0.07991123-0.06992233 0.14983355-0.14983355 0.14983356-0.22974477 0-0.41953395 0.18978918-0.41953396 0.42952285 0 0.22974477 0.18978918 0.42952285 0.41953396 0.42952284 0.07991123 0 0.14983355 0.06992233 0.14983355 0.14983357L521.98890359 510.98446146c0 0.07991123-0.06992233 0.14983355-0.14983356 0.14983357-0.22974477 0-0.41953395 0.18978918-0.41953395 0.42952285 0 0.22974477 0.18978918 0.42952285 0.41953395 0.42952286 0.07991123 0 0.14983355 0.06992233 0.14983356 0.14983355l0 0.57935641c0 0.07991123-0.06992233 0.14983355-0.14983356 0.14983355-0.22974477 0-0.41953395 0.18978918-0.41953395 0.42952284 0 0.22974477 0.18978918 0.42952285 0.41953395 0.42952286 0.07991123 0 0.14983355 0.06992233 0.14983356 0.14983357l0 0.5793564c0 0.07991123-0.06992233 0.14983355-0.14983356 0.14983356-0.22974477 0-0.41953395 0.18978918-0.41953395 0.42952284 0 0.22974477 0.18978918 0.42952285 0.41953395 0.42952285 0.07991123 0 0.14983355 0.06992233 0.14983356 0.14983357l0 0.57935639c0 0.07991123-0.06992233 0.14983355-0.14983356 0.14983357-0.41953395 0-0.41953395 0.42952285-0.41953395 0.43951177 0 0.23973368 0.18978918 0.43951177 0.41953395 0.43951174 0.07991123 0 0.14983355 0.06992233 0.14983356 0.14983354l0 0.70921216c0 0.06992233-0.06992233 0.12985575-0.14983356 0.12985575z m-12.5061073-0.28967819L521.68923648 517.92674947l-1e-8-0.42952285c-0.31964491-0.06992233-0.56936751-0.35960053-0.5693675-0.71920108 0-0.24972259 0.15982245-0.63928983 0.5693675-0.71920104l0-0.30965602c-0.31964491-0.06992233-0.5593786-0.35960053-0.5693675-0.70921217 0-0.34961162 0.24972259-0.63928983 0.5693675-0.70921214l0-0.309656c-0.31964491-0.06992233-0.5593786-0.35960053-0.5693675-0.70921217 0-0.34961162 0.24972259-0.63928983 0.5693675-0.70921216l0-0.309656c-0.31964491-0.06992233-0.5593786-0.35960053-0.5693675-0.70921216 0-0.34961162 0.24972259-0.63928983 0.5693675-0.70921215l0-0.30965601c-0.31964491-0.06992233-0.5593786-0.35960053-0.5693675-0.70921216 0-0.34961162 0.24972259-0.63928983 0.5693675-0.70921214l0-0.30965601c-0.31964491-0.06992233-0.5593786-0.35960053-0.5693675-0.70921217 0-0.34961162 0.24972259-0.63928983 0.5693675-0.70921216l0-0.309656c-0.31964491-0.06992233-0.5593786-0.35960053-0.5693675-0.70921215 0-0.34961162 0.24972259-0.63928983 0.5693675-0.70921217l0-0.30965602L509.33296274 505.38068654c-0.07991123 0.74916776-0.72918997 1.33851308-1.48834663 1.3385131-0.76914556 0-1.4084354-0.58934532-1.48834664-1.3385131L502.44061928 505.38068654 502.44061928 505.69034255c0.30965602 0.07991123 0.5394008 0.35960053 0.54938968 0.69922328 0 0.33962272-0.22974477 0.62930093-0.54938969 0.70921214l0 0.31964491c0.30965602 0.07991123 0.5394008 0.35960053 0.54938969 0.69922326 0 0.33962272-0.22974477 0.62930093-0.54938969 0.70921215l0 0.31964493c0.30965602 0.07991123 0.5394008 0.35960053 0.54938969 0.69922324 0 0.33962272-0.22974477 0.62930093-0.54938969 0.70921215l0 0.31964492c0.30965602 0.07991123 0.5394008 0.35960053 0.54938969 0.69922325 0 0.33962272-0.22974477 0.62930093-0.54938969 0.70921214l0 0.31964493c0.30965602 0.07991123 0.5394008 0.35960053 0.54938969 0.69922324 0 0.33962272-0.22974477 0.62930093-0.54938969 0.70921217l0 0.31964491c0.30965602 0.07991123 0.5394008 0.35960053 0.54938969 0.69922324 0 0.33962272-0.22974477 0.62930093-0.54938969 0.70921217l0 0.31964491c0.36958943 0.07991123 0.5493897 0.44950067 0.54938969 0.70921216 0 0.34961162-0.22974477 0.62930093-0.54938969 0.70921216l0 0.43951175 3.9056613 0c0.07991123-0.74916776 0.72918997-1.33851308 1.48834664-1.33851309 0.76914556 0.0099889 1.4084354 0.58934532 1.49833552 1.348502z" fill="#FF4501" p-id="6218"></path><path d="M498.17987687 349.43431111h164.85944889c9.90321778-27.96202667 16.89372445-58.25422222 22.13660444-91.45912888l27.96202667 2.9127111c-5.24288 31.45728-12.23338667 60.58439111-21.55406223 88.54641778h192.23893334v25.04931556h-201.55960889c-9.90321778 23.88423111-20.38897778 45.43829333-32.62236445 64.66218666h262.144v25.63185778H790.61607242c26.79694222 39.03032889 72.23523555 74.56540445 136.31488 105.44014222l-18.05880888 22.13660445c-70.48760889-38.44778667-119.42115555-80.97336889-146.80064-127.57674667h-130.48945778c-40.77795555 54.75896889-94.37184 97.86709333-161.94673778 129.32437334l-15.72864-23.88423112c59.41930667-25.63185778 107.18776889-61.16693333 143.88792889-105.44014222h-128.15928889v-25.63185778h147.38318222c14.56355555-21.55406222 26.2144-43.10812445 35.53507556-64.66218666H498.17987687V349.43431111z m60.58439111 219.61841779v-26.2144h267.38688c-1.74762667 47.76846222-4.66033778 85.63370667-8.15559111 112.43064888-4.07779555 27.37948445-11.06830222 47.18592-20.97152 58.83676445-10.48576 10.48576-26.2144 16.31118222-47.18592 17.47626667h-72.81777778l-6.99050667-26.79694223c23.30168889 1.16508445 45.43829333 1.74762667 66.40981334 1.74762666 23.88423111 0 39.61287111-8.73813333 47.18592-25.04931555 8.15559111-17.47626667 13.39847111-54.75896889 15.72864-112.43064888h-135.14979556c-10.48576 40.19541333-25.04931555 71.65269333-43.69066666 95.53692443-22.71914667 26.2144-55.92405333 49.51608889-99.61472 70.4876089l-17.47626667-22.13660445c40.77795555-18.05880889 71.65269333-38.44778667 92.62421333-60.00184888 19.22389333-21.55406222 33.20490667-49.51608889 42.52558222-83.88608h-79.80828444z m8.73813333-305.83466667c13.98101333 20.97152 26.79694222 44.27320889 39.03032889 70.48760888l-23.30168889 10.48576c-12.81592889-27.96202667-26.2144-51.84625778-40.19541333-72.23523555l24.46677333-8.73813333z m276.70755556 4.66033777c-12.23338667 29.70965333-26.79694222 55.34151111-44.85575111 76.31303111l-20.97152-11.65084444c16.31118222-20.97152 30.29219555-45.43829333 41.36049778-73.40032l24.46677333 8.73813333zM285.55196576 727.50421333c-4.66033778 0-8.73813333-4.07779555-8.73813334-8.73813333V266.71331556c0-4.66033778 4.07779555-8.73813333 8.73813334-8.73813333s8.73813333 4.07779555 8.73813333 8.73813333v452.05276444c0 4.66033778-4.07779555 8.73813333-8.73813333 8.73813333z" fill="#ffffff" p-id="6219"></path></svg>