<?xml version="1.0" standalone="no"?><!DOCTYPE svg PUBLIC "-//W3C//DTD SVG 1.1//EN" "http://www.w3.org/Graphics/SVG/1.1/DTD/svg11.dtd"><svg class="icon" width="48px" height="47.54px" viewBox="0 0 1034 1024" version="1.1" xmlns="http://www.w3.org/2000/svg"><path d="M205.523423 977.214662v-504.024553a46.607447 46.607447 0 0 0-46.607446-46.607446h-4.980949a46.607447 46.607447 0 0 0-46.726041 46.607446v504.024553a46.666744 46.666744 0 0 0 46.666744 46.666744h4.980949a46.666744 46.666744 0 0 0 46.666743-46.666744z m104.481325-527.743355s163.481846-61.313104 207.539522-273.892872l3.083444-22.354971v4.743761C529.047889 91.613875 563.795935 46.251665 617.16324 46.251665c56.272859 0 95.230992 34.510858 81.41479 112.012045l-15.357925 216.137587-3.024147 15.773004h308.700214a45.95518 45.95518 0 0 1 45.95518 45.95518l-122.566912 531.834848a45.95518 45.95518 0 0 1-45.955179 45.95518H310.36053z" fill="#5599FF" /><path d="M158.85668 978.04482H77.263999a77.086108 77.086108 0 0 1-77.086108-77.086108v-504.024553a77.086108 77.086108 0 0 1 77.086108-77.086108h81.592681a77.086108 77.086108 0 0 1 77.086108 77.086108v504.024553a77.086108 77.086108 0 0 1-77.086108 77.086108zM77.263999 380.508889a16.010192 16.010192 0 0 0-16.010192 15.950894v504.024553a16.010192 16.010192 0 0 0 16.010192 16.010192h81.592681a16.010192 16.010192 0 0 0 16.010191-16.010192v-504.024553a16.010192 16.010192 0 0 0-16.010191-15.950894z m280.178354 587.633331H340.957786a30.656552 30.656552 0 0 1 0-61.313104h16.484567a30.656552 30.656552 0 0 1 0 61.313104z" fill="#333333" /><path d="M881.627888 344.397012H607.794314l13.994093-197.992704c9.724709-56.925126-6.463374-90.665122-21.821298-108.987897C579.450345 12.926747 548.319416 0 509.894956 0 446.032081 0 398.594476 48.445654 384.659679 127.192078a30.775146 30.775146 0 0 0-1.660316 6.463374l-2.96485 21.346922c-38.839539 185.125253-174.155307 202.0249-180.322196 202.677167a30.656552 30.656552 0 0 0 3.202038 61.135214h2.905554c7.590017-0.711564 186.548381-20.101685 234.638253-252.190168 0-0.652267 0-1.304534 0.355782-2.016098l1.660316-11.859401a30.597255 30.597255 0 0 0 1.363831-5.929701c2.609068-20.042388 15.180034-85.387689 66.35335-85.387689 13.756905 0 32.376165 2.668365 43.108924 15.476519 12.926747 15.417222 11.562916 41.507904 8.182987 60.542243a29.648503 29.648503 0 0 0-0.415079 3.202039l-15.298628 216.434072a30.953037 30.953037 0 0 0 0 4.506573 30.597255 30.597255 0 0 0 27.395217 44.294863h308.759511a15.357925 15.357925 0 0 1 15.06144 12.452372l-121.321675 465.718686a30.537958 30.537958 0 0 0-1.008049 7.708611 15.357925 15.357925 0 0 1-15.298628 15.298628H471.233308a30.656552 30.656552 0 0 0 0 61.313104h287.827668a76.730326 76.730326 0 0 0 76.493138-72.164456l121.677457-467.260409a30.597255 30.597255 0 0 0 1.008049-7.708611 76.671029 76.671029 0 0 0-76.611732-76.611732z" fill="#333333" /></svg>