<?xml version="1.0" standalone="no"?><!DOCTYPE svg PUBLIC "-//W3C//DTD SVG 1.1//EN" "http://www.w3.org/Graphics/SVG/1.1/DTD/svg11.dtd"><svg t="1573663179498" class="icon" viewBox="0 0 1024 1024" version="1.1" xmlns="http://www.w3.org/2000/svg" p-id="22166" xmlns:xlink="http://www.w3.org/1999/xlink" width="32" height="32"><defs><style type="text/css"></style></defs><path d="M903.30617598 153.7914793l-609.3315468 538.29314122L854.58981717 885.74345866z" fill="#96E8BA" p-id="22167"></path><path d="M839.80900242 895.69788492c-3.770616 0-7.39040737-0.60329857-11.01019875-1.96072032l-309.19051262-111.15775991c-8.44617986-3.01649281-12.82009443-12.36762051-9.8036016-20.81380035 3.01649281-8.44617986 12.36762051-12.82009443 20.81380036-9.80360162l309.19051261 111.1577599 37.10286152-557.29704589c0.60329857-8.89865377 8.29535522-15.68576258 17.34483361-15.08246405 8.89865377 0.60329857 15.68576258 8.29535522 15.08246405 17.34483363l-37.10286151 557.2970459c-0.7541232 10.25607554-6.03298562 19.30555395-14.62999013 25.0368903-5.42968706 3.46896672-11.6134973 5.2788624-17.79730754 5.27886241zM306.79472361 455.59158453c-5.5805117 0-10.8593741-2.86566816-14.02669156-7.99370594-4.52473921-7.69205665-2.11154496-17.64648292 5.5805117-22.32204676l574.79270418-342.8244074c10.40690018-6.18381024 23.22699461-6.18381024 33.63389479 0.15082464 10.25607554 6.33463489 16.28906115 17.79730756 15.38411331 29.86327878l-5.27886242 80.38953327c-0.60329857 8.89865377-8.29535522 15.68576258-17.34483363 15.08246403-8.89865377-0.60329857-15.68576258-8.29535522-15.08246403-17.34483362l5.27886239-80.38953329-574.64187952 343.12605668c-2.56401887 1.65907104-5.42968706 2.2623696-8.29535521 2.26236961zM307.5488468 713.80336873c-1.96072033 0-3.92144064-0.30164928-5.88216098-1.0557725L71.05581082 622.10198743c-11.6134973-4.52473921-19.45637859-15.08246403-20.51215109-27.60090919-1.05577248-12.36762051 4.97721313-24.13194244 15.68576259-30.46657734l138.90949372-82.95355215c7.69205665-4.52473921 17.64648292-2.11154496 22.32204677 5.58051168 4.52473921 7.69205665 2.11154496 17.64648292-5.58051171 22.32204676l-138.9094937 82.95355216 230.61087502 90.49478418c8.29535522 3.31814209 12.51844515 12.66926978 9.20030305 21.11544965-2.56401887 6.33463489-8.74782914 10.25607554-15.23328867 10.25607555z" fill="#103E26" p-id="22168"></path><path d="M420.06402847 945.92249014c-3.61979137 0-7.39040737-0.60329857-11.16102339-1.96072033-13.12174371-4.67556385-21.56792356-16.59071043-21.56792356-30.46657734l-0.30164928-171.94008992c0-6.78710881 2.2623696-13.42339298 6.33463488-18.85308005l482.18637506-628.93875004c5.42968706-7.08875809 15.68576258-8.44617986 22.77452066-3.01649281 7.08875809 5.42968706 8.44617986 15.68576258 3.01649283 22.77452068L419.61155455 742.00757646l0.30164929 171.48761601 61.83810251-75.26149551c5.73133634-6.93793346 15.98741186-7.99370593 22.77452069-2.2623696 6.93793346 5.73133634 7.99370593 15.98741186 2.26236961 22.77452068l-61.83810253 75.26149551c-6.33463489 7.69205665-15.3841133 11.91514658-24.88606565 11.91514659z m-0.15082463-32.42729767z m-0.15082465 0zM781.59069126 752.71612591h-1.05577248c-6.18381024-0.60329857-10.8593741-6.18381024-10.25607554-12.36762049l3.92144065-41.02430218c0.60329857-6.18381024 6.18381024-10.8593741 12.3676205-10.25607552 6.18381024 0.60329857 10.8593741 6.18381024 10.25607554 12.36762048l-3.92144065 41.02430218c-0.60329857 5.88216097-5.5805117 10.25607554-11.31184802 10.25607553zM790.48934504 660.5622707h-1.05577248c-6.18381024-0.60329857-10.8593741-6.18381024-10.25607553-12.36762051l15.3841133-159.4216448c0.60329857-6.18381024 6.18381024-10.8593741 12.3676205-10.25607554 6.18381024 0.60329857 10.8593741 6.18381024 10.25607555 12.36762051L801.80119306 650.15537051c-0.60329857 5.88216097-5.5805117 10.40690018-11.31184802 10.40690019z" fill="#103E26" p-id="22169"></path></svg>