<?xml version="1.0" standalone="no"?><!DOCTYPE svg PUBLIC "-//W3C//DTD SVG 1.1//EN" "http://www.w3.org/Graphics/SVG/1.1/DTD/svg11.dtd"><svg t="1573705903910" class="icon" viewBox="0 0 1194 1024" version="1.1" xmlns="http://www.w3.org/2000/svg" p-id="18274" width="74.625" height="64" xmlns:xlink="http://www.w3.org/1999/xlink"><defs><style type="text/css"></style></defs><path d="M1038.694772 367.234463c13.269284 23.338579-16.597271-39.99985-63.061097-39.99985H219.028512c-26.5599 0-46.463826 13.333283-63.061097 39.99985S0 607.276229 0 650.604067v290.046912C0 987.328138 36.501196 1024 82.965022 1024H1111.675831C1158.182323 1024 1194.662187 987.328138 1194.662187 940.650979V650.604067c0-43.327838-155.967415-283.369604-155.967415-283.369604s-19.903925-39.99985 0 0z m-268.798992 263.380346c-19.903925 0-33.194542 10.005296-39.829184 29.994554v6.677308c0 73.343725-59.733109 133.332833-132.735503 133.332833-73.002393 0-132.735502-59.989108-132.735502-133.332833v-6.677308c-9.962629-26.666567-36.501196-26.666567-36.501196-26.666567H73.002393l119.466219-220.031175s23.231913-39.99985 53.098467-39.99985h713.490658c26.538567 0 29.866555 10.005296 46.442492 39.99985l122.794207 220.031175h-358.398656v-3.327987zM338.494731 210.56305l-89.599664-86.698341c-9.962629-9.983963-9.962629-26.666567 0-33.322542 9.941296-10.026629 26.538567-10.026629 33.173209 0l89.599664 86.677008c9.962629 10.005296 9.962629 23.338579 0 33.322542-6.613309 6.677308-23.231913 10.026629-33.173209 0z m252.201721-40.021183a25.535904 25.535904 0 0 1-6.634642-16.661271l-3.327988-126.698191c0-13.333283 9.962629-23.317246 23.253246-26.666567 13.24795-3.327988 23.21058 10.026629 26.538568 23.338579v130.026179c0 13.333283-9.962629 23.338579-23.253247 26.666567-6.613309-3.327988-13.269284-3.327988-16.575937-10.005296z m235.604449 33.343875c-9.941296-10.005296-9.941296-23.338579 0-33.343875l86.29301-90.026329c9.941296-9.983963 26.538567-9.983963 33.173209 0 9.962629 10.026629 9.962629 26.6879 0 33.365208l-82.965022 90.004996a25.962569 25.962569 0 0 1-36.479863 0z" fill="#2086EA" p-id="18275"></path></svg>