<?xml version="1.0" standalone="no"?><!DOCTYPE svg PUBLIC "-//W3C//DTD SVG 1.1//EN" "http://www.w3.org/Graphics/SVG/1.1/DTD/svg11.dtd"><svg t="1573872327149" class="icon" viewBox="0 0 1210 1024" version="1.1" xmlns="http://www.w3.org/2000/svg" p-id="19389" xmlns:xlink="http://www.w3.org/1999/xlink" width="75.625" height="64"><defs><style type="text/css"></style></defs><path d="M443.810001 74.474669v232.726797h651.635031v-186.181437a46.545359 46.545359 0 0 0-46.545359-46.54536z" fill="#E7F4F6" p-id="19390"></path><path d="M1118.717712 330.474146h-698.18039v-279.272156h628.362351a69.818039 69.818039 0 0 1 69.818039 69.818039z m-651.635031-46.545359h605.089671v-162.908758a23.27268 23.27268 0 0 0-23.272679-23.27268h-581.816992z" fill="#2C2C5F" p-id="19391"></path><path d="M69.818039 23.274774a46.545359 46.545359 0 0 0-46.545359 46.54536l5.352716 884.361827a46.545359 46.545359 0 0 0 46.545359 46.545359H1140.361304a46.545359 46.545359 0 0 0 46.545359-46.545359V256.001571a46.545359 46.545359 0 0 0-46.545359-46.545359H665.133185a93.090719 93.090719 0 0 1-50.036261-14.661789L357.46836 30.489305A48.407174 48.407174 0 0 0 332.333866 23.274774z" fill="#CCFDE8" p-id="19392"></path><path d="M1140.361304 1024H75.170755a69.818039 69.818039 0 0 1-69.818039-69.818039L0 69.820134A69.818039 69.818039 0 0 1 20.247231 20.714779 68.421678 68.421678 0 0 1 69.818039 0.002095h262.98128a69.818039 69.818039 0 0 1 37.469015 10.938159L628.362351 175.245372a69.818039 69.818039 0 0 0 36.770834 10.93816H1140.361304a69.818039 69.818039 0 0 1 69.818039 69.818039v698.18039a69.818039 69.818039 0 0 1-69.818039 69.818039zM69.818039 46.547454a23.27268 23.27268 0 0 0-23.27268 23.27268l5.352717 884.361827a23.27268 23.27268 0 0 0 23.272679 23.27268H1140.361304a23.27268 23.27268 0 0 0 23.272679-23.27268V256.001571a23.27268 23.27268 0 0 0-23.272679-23.27268H665.133185a114.501584 114.501584 0 0 1-62.603508-18.385417l-257.628564-162.908757a23.27268 23.27268 0 0 0-12.567247-4.887263z" fill="#2C2C5F" p-id="19393"></path><path d="M798.485639 899.02571l-40.261735-212.479565 159.185129-147.781516-217.599555-28.159943L605.089671 315.346904l-94.952533 195.257782-217.832281 28.159943 159.185129 147.781516-40.261736 212.479565L605.089671 795.695012z" fill="#ACF2AE" p-id="19394"></path><path d="M830.369211 942.312894L605.089671 821.99314l-225.744992 120.319754 46.545359-247.388585-186.181437-173.148736L494.544443 488.728368 605.089671 262.052468 715.169446 488.728368l254.603116 32.581751-186.181438 173.148737zM344.435659 555.288231l132.188821 123.112476L442.180914 855.505799l162.908757-86.108915 162.908758 86.108915-33.745385-177.105092 132.421547-123.112476-181.061448-23.272679-79.359838-162.908758-79.592564 162.908758z" fill="#2C2C5F" p-id="19395"></path></svg>