<?xml version="1.0" standalone="no"?><!DOCTYPE svg PUBLIC "-//W3C//DTD SVG 1.1//EN" "http://www.w3.org/Graphics/SVG/1.1/DTD/svg11.dtd"><svg t="1573785456778" class="icon" viewBox="0 0 1024 1024" version="1.1" xmlns="http://www.w3.org/2000/svg" p-id="13684" xmlns:xlink="http://www.w3.org/1999/xlink" width="48" height="48"><defs><style type="text/css"></style></defs><path d="M429.834343 32.323232C281.923232 32.323232 161.939394 152.307071 161.939394 300.088889s119.854545 267.765657 267.765657 267.765656 267.765657-119.854545 267.765656-267.765656S577.616162 32.323232 429.834343 32.323232z" fill="#47A551" p-id="13685"></path><path d="M23.208081 987.79798h813.123232c8.791919 0 16.032323-6.981818 16.161616-15.773738v-7.111111c0-233.50303-189.284848-422.787879-422.787878-422.787878s-422.787879 189.284848-422.787879 422.787878v7.111111c0.258586 8.791919 7.49899 15.773737 16.290909 15.773738z" fill="#45A551" p-id="13686"></path><path d="M673.292929 554.666667c0 6.206061 4.525253 11.377778 10.472728 12.024242 171.313131 16.549495 305.389899 166.917172 305.389899 349.866667v5.30101c-0.129293 8.016162 5.688889 14.99798 13.446464 15.385858 7.886869 0.258586 14.351515-6.076768 14.480808-14.222222v-6.464646c0-196.525253-142.868687-358.270707-326.20606-378.311111-9.438384-1.163636-17.583838 6.464646-17.583839 16.420202z" fill="#ACD3B1" p-id="13687"></path><path d="M676.137374 99.555556c0 6.335354 4.39596 11.636364 10.343434 12.541414C785.648485 128 861.672727 217.341414 861.672727 325.171717S785.648485 522.472727 686.480808 538.246465c-5.947475 0.905051-10.343434 6.206061-10.343434 12.541414 0 7.757576 6.723232 13.705051 14.092929 12.541414C801.163636 545.616162 886.109091 445.80202 886.109091 325.171717S801.163636 104.727273 690.230303 87.014141c-7.49899-1.163636-14.092929 4.783838-14.092929 12.541415z" fill="#ACD3B1" p-id="13688"></path><path d="M837.107071 987.79798h-814.545455c-8.533333 0-15.515152-6.981818-15.515151-15.515152v-1.292929c0-8.533333 6.981818-15.515152 15.515151-15.515152h814.416162c8.533333 0 15.515152 6.981818 15.515151 15.515152v1.292929c0.129293 8.533333-6.981818 15.515152-15.385858 15.515152z" fill="#45A551" p-id="13689"></path></svg>