<?xml version="1.0" standalone="no"?><!DOCTYPE svg PUBLIC "-//W3C//DTD SVG 1.1//EN" "http://www.w3.org/Graphics/SVG/1.1/DTD/svg11.dtd"><svg t="1573663185204" class="icon" viewBox="0 0 1024 1024" version="1.1" xmlns="http://www.w3.org/2000/svg" p-id="22294" xmlns:xlink="http://www.w3.org/1999/xlink" width="32" height="32"><defs><style type="text/css"></style></defs><path d="M120 512a392 392 0 1 0 784 0 392 392 0 0 0-784 0z" fill="#9DE8F7" p-id="22295"></path><path d="M512 0C228.8 0 0 228.8 0 512s228.8 512 512 512 512-228.8 512-512-228.8-512-512-512z m0 992C248 992 32 776 32 512S248 32 512 32s480 216 480 480-216 480-480 480z" fill="" p-id="22296"></path><path d="M512 803.136a9.408 9.408 0 0 1-6.848-3.008L277.184 549.76a156.544 156.544 0 0 1-45.312-111.04c0-85.824 67.968-155.648 151.424-155.648 16.128 0 32 2.624 47.168 7.744a9.344 9.344 0 0 1-5.952 17.664 128.128 128.128 0 0 0-41.152-6.784c-73.28 0-132.8 61.44-132.8 137.024 0 37.248 14.272 72.128 40.128 98.112L512 780.032l221.12-242.88c26.112-26.304 40.384-61.184 40.384-98.368 0-75.584-59.648-137.024-132.736-137.024-25.6 0-50.496 7.552-72 21.824-0.64 0.384-55.872 37.312-140.736 146.304a9.344 9.344 0 1 1-14.784-11.456c87.168-111.808 142.848-148.864 145.152-150.4 24.384-16.32 52.864-24.96 82.24-24.96 83.52 0 151.488 69.824 151.488 155.648 0 42.24-16.256 81.728-45.632 111.232l-227.648 250.112a9.344 9.344 0 0 1-6.848 3.072z" fill="" p-id="22297"></path><path d="M512 811.136a17.344 17.344 0 0 1-12.736-5.568L271.232 555.136a163.968 163.968 0 0 1-47.36-116.352c0-90.24 71.552-163.648 159.424-163.648 17.024 0 33.728 2.752 49.728 8.192a17.536 17.536 0 0 1 11.008 21.76 17.92 17.92 0 0 1-21.888 11.008 120.512 120.512 0 0 0-38.784-6.4c-68.8 0-124.8 57.856-124.8 129.024 0 35.136 13.44 67.968 37.824 92.416L512 768.128l215.168-236.352c24.832-24.96 38.336-57.856 38.336-92.992 0-71.168-55.936-129.024-124.736-129.024-24 0-47.36 7.104-67.584 20.48-0.576 0.384-55.232 37.248-138.88 144.576a17.728 17.728 0 0 1-24.384 3.008 17.152 17.152 0 0 1-3.008-24.256C489.6 347.456 543.808 308.224 553.792 301.44c25.792-17.28 55.808-26.368 86.784-26.368 87.936 0 159.488 73.408 159.488 163.648a164.48 164.48 0 0 1-47.936 116.864L524.8 805.504a17.408 17.408 0 0 1-12.8 5.632zM383.296 291.072c-79.104 0-143.424 66.24-143.424 147.648 0 40.064 15.232 77.44 42.944 105.344L512 795.136a1.664 1.664 0 0 0 1.024-0.448l227.52-250.048a149.12 149.12 0 0 0 43.584-105.856c0-81.408-64.384-147.648-143.488-147.648-27.84 0-54.72 8.128-77.824 23.616-6.016 3.968-60.352 42.24-143.232 148.608l1.024 2.112C508.16 353.984 563.84 317.248 564.352 316.864a137.728 137.728 0 0 1 76.352-23.104c77.632 0 140.736 65.088 140.736 145.024a146.56 146.56 0 0 1-42.688 104L512 791.872 284.8 542.208c-27.136-27.2-42.24-64-42.24-103.488 0-80 63.168-145.024 140.8-145.024 15.04 0 29.76 2.432 43.776 7.168l1.6-1.792a131.392 131.392 0 0 0-45.44-8z" fill="" p-id="22298"></path></svg>