<?xml version="1.0" standalone="no"?><!DOCTYPE svg PUBLIC "-//W3C//DTD SVG 1.1//EN" "http://www.w3.org/Graphics/SVG/1.1/DTD/svg11.dtd"><svg class="icon" width="48px" height="48.00px" viewBox="0 0 1024 1024" version="1.1" xmlns="http://www.w3.org/2000/svg"><path fill="#ffffff" d="M192 672h704a32 32 0 0 0 32-32V128a32 32 0 0 0-32-32H128a32 32 0 0 0-32 32v512a32 32 0 0 0 32 32h64zM517.76 768L192 1024v-256H128a128 128 0 0 1-128-128V128a128 128 0 0 1 128-128h768a128 128 0 0 1 128 128v512a128 128 0 0 1-128 128H517.76zM288 672v128l160-128H288z"  /><path fill="#ffffff" d="M320 352h384V448H320z"  /></svg>