<?xml version="1.0" standalone="no"?><!DOCTYPE svg PUBLIC "-//W3C//DTD SVG 1.1//EN" "http://www.w3.org/Graphics/SVG/1.1/DTD/svg11.dtd"><svg t="1573873043550" class="icon" viewBox="0 0 1024 1024" version="1.1" xmlns="http://www.w3.org/2000/svg" p-id="27908" xmlns:xlink="http://www.w3.org/1999/xlink" width="64" height="64"><defs><style type="text/css"></style></defs><path d="M512 976A464 464 0 1 1 976 512 464.64 464.64 0 0 1 512 976z" fill="#343434" p-id="27909"></path><path d="M512 96A416 416 0 1 1 96 512 416 416 0 0 1 512 96m0-96A512 512 0 0 0 0 512a512 512 0 0 0 512 512 512 512 0 0 0 512-512A512 512 0 0 0 512 0z" fill="#ffd62e" p-id="27910"></path><path d="M724.8 256H298.56A42.88 42.88 0 0 0 256 298.88V640a42.88 42.88 0 0 0 42.56 42.56H320a20.16 20.16 0 0 1 21.44 21.44v36.16a24.32 24.32 0 0 0 38.4 23.36l132.16-70.4a88 88 0 0 1 40.64-10.56h172.48A42.88 42.88 0 0 0 768 640V298.88A42.88 42.88 0 0 0 724.8 256z m-106.56 298.24h-213.12a20.16 20.16 0 0 1-21.44-21.44 21.44 21.44 0 0 1 21.44-21.44h213.12a20.16 20.16 0 0 1 21.44 21.44 21.44 21.44 0 0 1-21.44 21.44z m0-128h-213.12a20.16 20.16 0 0 1-21.44-21.44 21.44 21.44 0 0 1 21.44-21.44h213.12a20.16 20.16 0 0 1 21.44 21.44 21.44 21.44 0 0 1-21.44 21.44z m0 0" fill="#FFFFFF" p-id="27911"></path></svg>