<?xml version="1.0" standalone="no"?><!DOCTYPE svg PUBLIC "-//W3C//DTD SVG 1.1//EN" "http://www.w3.org/Graphics/SVG/1.1/DTD/svg11.dtd"><svg t="1573871405344" class="icon" viewBox="0 0 1024 1024" version="1.1" xmlns="http://www.w3.org/2000/svg" p-id="6344" xmlns:xlink="http://www.w3.org/1999/xlink" width="64" height="64"><defs><style type="text/css"></style></defs><path d="M511.482 865.247c-195.739 0-354.461-69.426-355.024-154.985a1074.36 1074.36 0 0 1-53.555-15.769c-0.714 5.07-1.023 10.14-1.023 15.308 0 117.047 183.398 211.918 409.602 211.918 226.199 0 409.597-94.871 409.597-211.969 0-6.55-0.511-13.156-1.738-19.558-16.899 5.789-34.613 11.367-52.992 16.437l0.152 3.172c0 85.813-158.976 155.446-355.019 155.446z m0 0" fill="#025FB1" p-id="6345"></path><path d="M511.482 667.461c-195.739 0-354.461-69.324-355.024-154.984a946.008 946.008 0 0 1-53.555-15.719c-0.714 5.02-1.023 10.242-1.023 15.364 0 116.937 183.398 211.812 409.602 211.812 226.199 0 409.597-94.875 409.597-211.812 0-6.657-0.511-13.161-1.738-19.715-16.899 5.89-34.613 11.316-52.992 16.488l0.152 3.227c0 85.757-158.976 155.339-355.019 155.339z m0 0" fill="#025FB1" p-id="6346"></path><path d="M101.88 314.332c0 117.047 183.398 211.817 409.602 211.817 226.199 0 409.597-94.77 409.597-211.817 0-117.042-183.398-211.812-409.597-211.812-226.204 0-409.602 94.77-409.602 211.812z m0 0" fill="#F39800" p-id="6347"></path></svg>