<?xml version="1.0" standalone="no"?><!DOCTYPE svg PUBLIC "-//W3C//DTD SVG 1.1//EN" "http://www.w3.org/Graphics/SVG/1.1/DTD/svg11.dtd"><svg t="1572915448170" class="icon" viewBox="0 0 1024 1024" version="1.1" xmlns="http://www.w3.org/2000/svg" p-id="1405" width="16" height="16" xmlns:xlink="http://www.w3.org/1999/xlink"><defs><style type="text/css"></style></defs><path d="M632.448 430.912l92.864-77.952v73.728a42.688 42.688 0 0 0 85.376 0V256A42.56 42.56 0 0 0 768 213.312H597.312a42.688 42.688 0 1 0 0 85.312h59.968L567.488 374.08a234.688 234.688 0 1 0 64.96 56.96zM512 0h512v512A512 512 0 1 1 0 512a512 512 0 0 1 512-512zM448 736a160 160 0 1 1 0-320 160 160 0 0 1 0 320z" fill="#0F71FF" p-id="1406"></path></svg>