<?xml version="1.0" standalone="no"?><!DOCTYPE svg PUBLIC "-//W3C//DTD SVG 1.1//EN" "http://www.w3.org/Graphics/SVG/1.1/DTD/svg11.dtd"><svg t="1573805029837" class="icon" viewBox="0 0 1024 1024" version="1.1" xmlns="http://www.w3.org/2000/svg" p-id="12420" width="64" height="64" xmlns:xlink="http://www.w3.org/1999/xlink"><defs><style type="text/css"></style></defs><path d="M417.865143 775.753143h179.931428V534.747429h-179.931428z" fill="#FCDCD4" p-id="12421"></path><path d="M146.285714 785.261714s208.822857-72.704 239.250286-85.942857c68.534857 35.693714 77.312 64.585143 77.312 64.585143l20.333714 2.706286h65.170286l87.04-67.291429 238.738286 84.114286v239.835428H146.285714v-238.006857z" fill="#7AAAFF" p-id="12422"></path><path d="M424.374857 582.290286s40.813714 28.818286 83.309714 24.137143c42.422857-4.608 53.540571-7.826286 87.698286-24.137143 0 10.020571 0 0 0 0s-39.643429 33.353143-85.504 32.987428c-25.819429-0.219429-55.222857-11.190857-85.504-32.987428" fill="#D8AFAD" p-id="12423"></path><path d="M712.850286 341.284571c-15.433143-0.731429-21.357714 20.187429-27.355429 36.790858 2.779429-58.514286-3.657143-128.146286-37.229714-165.595429-36.571429-40.886857-81.700571-55.588571-137.581714-55.588571-58.660571 0-114.614857 11.044571-151.625143 55.588571-27.648 33.28-27.574857 108.178286-22.235429 161.718857-6.582857-15.579429-16.969143-33.572571-29.842286-32.914286-16.310857 4.754286-10.898286 74.459429 18.870858 98.889143 5.266286 4.315429 10.605714 5.851429 14.482285 7.899429 2.194286 20.260571 7.314286 37.229714 19.236572 58.806857 27.867429 50.614857 71.68 82.870857 105.325714 95.670857 14.116571 5.485714 29.988571 5.851429 45.787429 5.851429 13.897143 0 28.013714-0.292571 40.813714-4.608 32.914286-11.117714 76.653714-39.936 105.691428-89.307429 12.507429-21.357714 17.92-42.203429 20.187429-65.316571 4.169143-2.121143 10.532571-3.657143 16.676571-8.996572 29.696-26.331429 35.108571-94.134857 18.797715-98.889143" fill="#FCDCD4" p-id="12424"></path><path d="M510.537143 765.952s-21.650286 15.067429-33.426286 25.088c-11.849143 10.093714-26.185143 53.248-53.76 59.245714-5.485714-10.386286-4.388571-22.089143-4.388571-22.089143l33.499428-62.171428h26.550857s21.723429-4.096 31.524572 0" fill="#DBDBDB" p-id="12425"></path><path d="M419.547429 634.514286s-6.729143 65.901714 87.04 127.414857c-33.426286 18.651429-35.620571 19.748571-46.957715 40.594286-12.361143 24.137143-30.939429 45.568-36.278857 47.762285-7.533714-49.444571-31.012571-89.453714-32.182857-99.328-1.024-9.874286-9.654857-40.667429-7.460571-51.638857 2.194286-10.971429 35.84-64.804571 35.84-64.804571" fill="#FFFFFF" p-id="12426"></path><path d="M502.198857 765.952s21.723429 15.067429 33.645714 25.088c11.776 10.093714 30.573714 53.248 58.294858 59.245714 5.412571-10.386286 0-22.089143 0-22.089143l-33.645715-62.171428h-26.697143s-21.723429-4.096-31.597714 0" fill="#DBDBDB" p-id="12427"></path><path d="M597.796571 634.514286s6.875429 65.901714-87.186285 127.414857c33.499429 18.651429 35.693714 19.748571 47.030857 40.594286 12.434286 24.137143 31.085714 45.568 36.498286 47.762285 7.533714-49.444571 31.085714-89.453714 32.182857-99.328 1.097143-9.874286 9.728-40.667429 7.533714-51.638857-2.194286-10.971429-36.059429-64.804571-36.059429-64.804571" fill="#FFFFFF" p-id="12428"></path><path d="M342.454857 359.204571c1.901714-19.602286-6.217143-61.074286 6.217143-75.264-10.386286-34.084571 20.187429-124.342857 132.534857-103.643428 22.674286 4.096 62.976-1.097143 84.992-3.145143 46.226286-4.315429 93.622857 40.301714 98.304 84.845714-1.901714 35.620571 19.748571 74.459429 17.773714 95.085715-1.828571 20.699429-2.779429 49.444571-0.950857 57.782857 8.411429-29.988571 5.485714-59.026286 31.451429-73.581715 30.866286-40.96 62.098286-120.612571 13.165714-146.870857 4.681143-37.229714 7.094857-93.769143-66.267428-121.929143C640.073143 23.771429 472.502857-39.058286 424.740571 32.475429c-22.674286 6.217143-36.278857 23.771429-40.96 45.494857-43.446857 16.530286-134.729143 34.011429-108.251428 188.050285 2.56 26.624 9.801143 33.938286 39.936 77.531429 15.798857 18.870857 25.453714 39.131429 24.722286 63.926857 0 0 0.365714-28.598857 2.267428-48.274286z" fill="#241B26" p-id="12429"></path></svg>