<?xml version="1.0" standalone="no"?><!DOCTYPE svg PUBLIC "-//W3C//DTD SVG 1.1//EN" "http://www.w3.org/Graphics/SVG/1.1/DTD/svg11.dtd"><svg t="1573611367955" class="icon" viewBox="0 0 1024 1024" version="1.1" xmlns="http://www.w3.org/2000/svg" p-id="815" xmlns:xlink="http://www.w3.org/1999/xlink" width="16" height="16"><defs><style type="text/css"></style></defs><path d="M758.4768 352.5632H287.8464V296.2944c0-114.3808 90.2656-207.4624 201.216-207.4624 116.992 0 199.7824 69.7856 201.1648 169.728 0.3584 22.7328 21.6064 44.2368 43.7248 44.2368a43.52 43.52 0 0 0 43.7248-44.2368c1.024-67.0208-22.6304-126.976-68.4544-173.4144C655.9744 30.976 575.6928 0 489.0624 0c-159.232 0-288.6656 132.9152-288.6656 296.2944v57.9072C144.4864 363.6224 102.4 413.184 102.4 472.576v394.0864c0 66.1504 52.5824 119.9616 117.248 119.9616h538.8288c64.6144 0 117.248-53.8112 117.248-119.9616V472.576c0-66.2016-52.6336-120.0128-117.248-120.0128m0 545.1776H219.5968a30.5152 30.5152 0 0 1-29.7472-31.0784V472.576c0-17.2032 13.312-31.1296 29.7472-31.1296h538.88c16.384 0 29.696 13.9264 29.696 31.1296v394.0864c0 17.152-13.312 31.0784-29.696 31.0784m-257.5872-361.984c-49.8176 0-90.368 38.4512-90.368 85.76 0 31.488 18.3296 59.9552 47.4112 74.752v82.9952c0 22.8352 19.2512 41.472 42.9568 41.472 23.7056 0 42.9056-18.6368 42.9056-41.472V696.32c29.0816-14.848 47.4112-43.3152 47.4112-74.8032 0-47.3088-40.5504-85.8112-90.3168-85.8112" p-id="816" fill="#ffffff"></path></svg>