<?xml version="1.0" standalone="no"?><!DOCTYPE svg PUBLIC "-//W3C//DTD SVG 1.1//EN" "http://www.w3.org/Graphics/SVG/1.1/DTD/svg11.dtd"><svg t="1573827748136" class="icon" viewBox="0 0 1024 1024" version="1.1" xmlns="http://www.w3.org/2000/svg" p-id="9310" xmlns:xlink="http://www.w3.org/1999/xlink" width="64" height="64"><defs><style type="text/css"></style></defs><path d="M357.444267 560.9472a297.847467 297.847467 0 0 1-76.5952-84.241067A280.234667 280.234667 0 0 1 522.786133 54.954667a280.849067 280.849067 0 0 1 280.302934 280.576 280.029867 280.029867 0 0 1-82.1248 197.8368 278.050133 278.050133 0 0 1-198.2464 82.056533h-2.8672a310.6816 310.6816 0 0 0-310.818134 310.203733 42.939733 42.939733 0 0 1-85.742933 0.136534 384.8192 384.8192 0 0 1 73.386667-229.7856A393.898667 393.898667 0 0 1 357.239467 564.565333l3.140266-1.365333-2.935466-2.184533z m165.2736-31.880533c107.178667 0 194.628267-87.2448 194.628266-194.218667a194.7648 194.7648 0 0 0-194.56-194.218667 194.7648 194.7648 0 0 0-194.628266 194.218667 194.7648 194.7648 0 0 0 194.56 194.218667z" fill="#FF9200" p-id="9311"></path><path d="M955.323733 883.370667v4.3008a69.358933 69.358933 0 0 1-71.611733 67.106133H638.293333a69.290667 69.290667 0 0 1-67.242666-71.4752v-179.4048a69.358933 69.358933 0 0 1 71.611733-67.106133h241.117867c39.458133 0 70.8608 31.402667 71.68 70.792533v175.7184z m-67.925333 16.725333a16.452267 16.452267 0 0 0 10.24-5.802667 12.014933 12.014933 0 0 0 3.618133-10.922666v-175.104a15.428267 15.428267 0 0 0-4.369066-12.356267c-3.6864-2.935467-8.055467-5.12-12.424534-4.437333H643.345067a15.496533 15.496533 0 0 0-12.424534 4.437333c-2.935467 3.618133-5.12 7.9872-4.437333 12.356267v175.035733a15.428267 15.428267 0 0 0 4.437333 12.424533c3.618133 2.935467 7.9872 5.12 12.424534 4.369067h244.053333z" fill="#FF9200" p-id="9312"></path><path d="M654.7456 837.358933c0-18.363733 15.496533-33.792 33.860267-33.792h151.278933c9.0112 0 17.339733 3.549867 23.825067 10.0352a33.245867 33.245867 0 0 1 10.0352 23.7568v2.184534c0 9.216-3.754667 17.749333-10.4448 23.415466a36.795733 36.795733 0 0 1-23.415467 8.192H688.605867a34.269867 34.269867 0 0 1-33.860267-33.792z m33.860267-54.408533a34.269867 34.269867 0 0 1-33.860267-33.860267c0-18.295467 15.496533-33.792 33.860267-33.792h41.642666a33.792 33.792 0 1 1 0 67.584h-41.642666z" fill="#FF9200" p-id="9313"></path></svg>