<?xml version="1.0" standalone="no"?><!DOCTYPE svg PUBLIC "-//W3C//DTD SVG 1.1//EN" "http://www.w3.org/Graphics/SVG/1.1/DTD/svg11.dtd"><svg t="1573745602415" class="icon" viewBox="0 0 1024 1024" version="1.1" xmlns="http://www.w3.org/2000/svg" p-id="32523" width="128" height="128" xmlns:xlink="http://www.w3.org/1999/xlink"><defs><style type="text/css"></style></defs><path d="M109.381818 658.618182a397.381818 73.890909 0 1 0 794.763637 0 397.381818 73.890909 0 1 0-794.763637 0Z" fill="#CFE0E3" p-id="32524"></path><path d="M158.254545 51.204655h11.636364V140.8H158.254545z" fill="#2186AB" p-id="32525"></path><path d="M119.272727 90.186473h89.595346v11.636363H119.272727zM863.204073 685.391127h5.669236v43.631709h-5.669236z" fill="#2186AB" p-id="32526"></path><path d="M844.218182 704.372364h43.636363v5.673891h-43.636363z" fill="#2186AB" p-id="32527"></path><path d="M793.018182 155.927273H473.6v-29.961309a28.797673 28.797673 0 0 0-28.797673-28.797673H295.2704a28.797673 28.797673 0 0 0-28.797673 28.797673V155.927273h-36.654545a21.527273 21.527273 0 0 0-21.527273 21.527272v134.981819a21.527273 21.527273 0 0 0 21.527273 21.527272h563.2A21.527273 21.527273 0 0 0 814.545455 312.436364v-134.981819a21.527273 21.527273 0 0 0-21.527273-21.527272z" fill="#CCE1E7" p-id="32528"></path><path d="M793.018182 338.618182h-563.2a26.205091 26.205091 0 0 1-26.181818-26.181818v-134.981819a26.205091 26.205091 0 0 1 26.181818-26.181818h32v-25.306763c0-18.445964 15.006255-33.452218 33.452218-33.452219h149.531927c18.445964 0 33.452218 15.006255 33.452218 33.452219V151.272727h314.763637A26.205091 26.205091 0 0 1 819.2 177.454545v134.981819a26.205091 26.205091 0 0 1-26.181818 26.181818z m-563.2-178.036364a16.891345 16.891345 0 0 0-16.872727 16.872727v134.981819a16.891345 16.891345 0 0 0 16.872727 16.872727h563.2A16.891345 16.891345 0 0 0 809.890909 312.436364v-134.981819a16.891345 16.891345 0 0 0-16.872727-16.872727H468.945455v-34.615854a24.171055 24.171055 0 0 0-24.143128-24.143128H295.2704a24.171055 24.171055 0 0 0-24.143127 24.143128V160.581818h-41.309091z" fill="#2186AB" p-id="32529"></path><path d="M821.904291 633.488291c-1.498764 13.935709-13.856582 25.129891-27.615418 25.129891H233.197382c-13.754182 0-26.107345-11.194182-27.610764-25.129891l-41.453382-384.958836c-1.950255-18.1248 9.341673-32.963491 25.246255-32.963491h648.731927c15.909236 0 27.201164 14.838691 25.250909 32.963491l-41.458036 384.958836z" fill="#E8F3F9" p-id="32530"></path><path d="M794.288873 663.272727H233.197382c-16.034909 0-30.496582-13.135127-32.237382-29.2864l-41.453382-384.963491c-1.168291-10.845091 1.903709-21.234036 8.429382-28.499781a28.509091 28.509091 0 0 1 21.443491-9.616291h648.731927a28.485818 28.485818 0 0 1 21.443491 9.616291c6.525673 7.265745 9.602327 17.650036 8.434036 28.499781l-41.453381 384.963491c-1.7408 16.151273-16.202473 29.2864-32.246691 29.2864zM189.379491 220.220509c-5.664582 0-10.682182 2.257455-14.517527 6.525673-4.7616 5.301527-6.986473 13.060655-6.102109 21.280582l41.453381 384.958836c1.247418 11.566545 11.557236 20.978036 22.984146 20.978036h561.096145c11.426909 0 21.741382-9.406836 22.984146-20.978036l41.453382-384.958836c0.884364-8.224582-1.340509-15.983709-6.10211-21.280582-3.835345-4.268218-8.8576-6.525673-14.522181-6.525673H189.379491z" fill="#2186AB" p-id="32531"></path><path d="M645.971782 370.743855c-49.412655 0-61.449309-41.439418-61.574982-41.909528a6.981818 6.981818 0 0 1 13.456291-3.732945c0.498036 1.731491 12.227491 40.136145 65.266036 29.933382a6.981818 6.981818 0 0 1 2.639128 13.712291 104.694691 104.694691 0 0 1-19.786473 1.9968zM362.109673 371.213964c-3.970327 0-8.098909-0.162909-12.3904-0.493382a6.981818 6.981818 0 1 1 1.065891-13.921746c24.431709 1.875782 43.012655-2.234182 53.732072-11.892363C413.733236 336.602764 414.254545 326.884073 414.254545 326.786327a6.981818 6.981818 0 0 1 13.958982 0.386328c-0.018618 0.633018-0.586473 15.709091-14.349963 28.104145-11.757382 10.593745-29.1328 15.937164-51.753891 15.937164zM512.186182 562.455273c-33.563927 0-56.878545-20.521891-57.222982-20.8384a6.981818 6.981818 0 0 1 9.346327-10.370328c1.885091 1.680291 44.367127 38.488436 95.8464-0.381672a6.986473 6.986473 0 0 1 8.420073 11.147636c-20.298473 15.318109-39.624145 20.442764-56.389818 20.442764z" fill="#2186AB" p-id="32532"></path><path d="M601.6 423.563636m-26.181818 0a26.181818 26.181818 0 1 0 52.363636 0 26.181818 26.181818 0 1 0-52.363636 0Z" fill="#2186AB" p-id="32533"></path><path d="M411.927273 423.563636m-26.181818 0a26.181818 26.181818 0 1 0 52.363636 0 26.181818 26.181818 0 1 0-52.363636 0Z" fill="#2186AB" p-id="32534"></path><path d="M87.300655 853.187491h21.64829v58.149236H93.277091v6.614109h-5.976436v-64.763345z m15.671854 5.794909H93.277091v46.559418h9.695418v-46.559418z m11.319855 7.247127h23.821963v-7.698618h-26.721745v-5.794909h26.721745v-9.602327h6.521018v9.602327h27.987782v5.794909h-27.987782v7.698618h22.28131v22.281309H160.395636v-2.3552h-16.030254a116.768582 116.768582 0 0 1-0.633018 8.424728h27.629381a158.906182 158.906182 0 0 1-1.089163 11.142981c-0.600436 5.618036-4.137891 8.429382-10.5984 8.429382-1.149673 0-3.621236-0.093091-7.428655-0.274618a75.710836 75.710836 0 0 0-1.266036-7.247127c3.746909 0.539927 6.674618 0.875055 8.787782 0.996073 2.052655 0.121018 3.262836-0.6656 3.621236-2.3552 0.242036-1.452218 0.484073-3.081309 0.726109-4.891928h-20.833745c3.802764 12.8 13.9776 20.950109 30.524509 24.454982-1.810618 2.597236-3.351273 4.859345-4.621964 6.795636-14.917818-4.891927-24.7296-12.832582-29.435345-23.821963-4.7104 10.989382-14.857309 19.293091-30.436073 24.911127a72.624873 72.624873 0 0 0-4.435782-6.251054c17.631418-5.799564 27.866764-14.494255 30.706037-26.084073h-23.007419l4.258909-20.0192h21.285237v-8.331637h-23.821964v-5.804218z m6.432581 28.346182H136.843636c0.423564-2.536727 0.754036-5.338764 0.996073-8.424727h-15.401891l-1.712873 8.424727z m23.9104-14.214982h15.760291v-8.331636h-15.760291v8.331636zM233.718691 883.167418c-0.274618 4.947782-1.633745 8.769164-4.077382 11.454837-2.443636 2.690327-5.720436 4.030836-9.825745 4.030836-3.565382 0-7.866182-1.750109-12.907055-5.254982-3.230255-2.141091-5.813527-3.211636-7.745164-3.211636-4.500945 0-6.837527 2.834618-7.019054 8.513163h-7.019055c0.209455-4.947782 1.568582-8.769164 4.072728-11.459491 2.5088-2.685673 5.799564-4.026182 9.872291-4.026181 3.411782 0 7.247127 1.419636 11.506036 4.254254 4.258909 2.8672 7.442618 4.305455 9.555782 4.305455 1.992145 0 3.579345-0.786618 4.756945-2.3552 1.1776-1.573236 1.796655-3.653818 1.857164-6.251055h6.972509zM294.949236 908.753455l-7.656727 24.143127h-6.339491l5.571491-24.143127h8.424727zM375.202909 923.108073c17.328873 0.363055 34.871855 0.246691 52.624291-0.3584-0.6656 1.992145-1.508073 4.375273-2.536727 7.154036-18.115491 0.181527-35.323345 0.060509-51.628218-0.363054-10.021236-0.116364-17.179927-3.621236-21.466764-10.50531-2.536727 2.471564-6.157964 6.521018-10.868364 12.1344l-3.714327-7.51709c4.528873-4.407855 8.392145-8.0896 11.594473-11.049891v-30.529164h-10.779928v-6.697891h17.752437v38.586182c3.802764 5.920582 10.146909 8.969309 19.023127 9.146182z m-26.270254-78.168437a385.661673 385.661673 0 0 1 12.683636 17.124073l-6.432582 4.528873a289.522036 289.522036 0 0 0-12.045964-17.752437l5.79491-3.900509z m15.853381 5.436509h61.230546v6.702546h-24.7296a142.340655 142.340655 0 0 1-4.347346 10.230691v9.872291l3.262837-3.802764a609.540655 609.540655 0 0 1 26.898618 21.648291l-5.161891 6.157964a417.121745 417.121745 0 0 0-24.999564-21.285237v38.586182h-7.247127v-38.944582c-6.823564 9.839709-15.425164 18.3296-25.814109 25.451055a79.699782 79.699782 0 0 0-4.980364-5.436509c16.849455-11.473455 28.290327-25.632582 34.327273-42.477382h-28.439273v-6.702546zM435.074327 867.495564c4.347345 3.016145 9.718691 7.154036 16.123346 12.409018-1.992145 2.234182-3.714327 4.226327-5.161891 5.976436-6.944582-6.157964-12.106473-10.537891-15.490327-13.130473l4.528872-5.254981z m8.694691 25.637236c2.536727 1.145018 4.947782 2.173673 7.247127 3.076655-4.589382 13.651782-8.336291 25.390545-11.231418 35.234909l-7.880145-2.718255c3.802764-10.081745 7.759127-21.950836 11.864436-35.593309z m-5.073454-48.821527c5.673891 4.468364 10.928873 8.787782 15.760291 12.948945-2.052655 2.113164-3.835345 3.984291-5.343419 5.618037a482.583273 482.583273 0 0 0-15.034181-13.586619l4.617309-4.980363z m21.829818 45.014109v-6.251055h50.450618v5.976437c-3.714327 9.723345-9.737309 18.068945-18.068945 25.046109 7.605527 4.831418 16.923927 8.317673 27.941236 10.458763a197.632 197.632 0 0 0-5.524946 7.247128c-11.231418-3.137164-20.712727-7.512436-28.443927-13.130473-8.452655 5.7344-18.781091 10.384291-30.976 13.949673-1.568582-2.234182-3.141818-4.407855-4.7104-6.521019 11.897018-3.109236 21.857745-7.168 29.891491-12.180945-7.307636-6.763055-12.590545-14.959709-15.853382-24.589964h-4.705745z m39.042327-35.323346h-23.733527v3.802764c0 10.021236-5.101382 17.873455-15.3088 23.552-1.6896-1.992145-3.472291-3.863273-5.343418-5.613382 9.057745-4.468364 13.586618-10.626327 13.586618-18.4832v-9.965382h37.864727v18.301673c0 2.718255 1.326545 4.072727 3.984291 4.072727h10.235345a238.238255 238.238255 0 0 0-0.721454 6.702546h-11.594473c-5.981091 0-8.969309-3.141818-8.969309-9.416146v-12.9536z m3.258182 35.323346h-30.659491c3.318691 8.150109 8.271127 14.973673 14.852655 20.466036 7.368145-5.757673 12.637091-12.585891 15.806836-20.466036zM548.929164 931.802764h-7.154037v-46.871273a154.526255 154.526255 0 0 1-14.4896 14.717673 100.631273 100.631273 0 0 0-4.352-6.609455c11.654982-9.755927 20.759273-20.563782 27.308218-32.428218h-24.77149v-6.702546h28.173963c1.717527-3.774836 3.202327-7.638109 4.435782-11.594472l7.517091 1.722182a142.382545 142.382545 0 0 1-3.984291 9.87229h51.176727v6.702546h-54.434909a120.329309 120.329309 0 0 1-6.157963 10.412218H601.832727v48.370036c0 7.489164-3.653818 11.231418-10.9568 11.231419-3.202327 0.065164-8.061673 0.093091-14.587345 0.093091-0.297891-2.048-0.754036-4.528873-1.359127-7.428655 5.557527 0.423564 10.025891 0.637673 13.409745 0.637673 4.165818 0 6.251055-2.052655 6.251055-6.157964v-6.432582h-45.656437v20.466037z m45.651781-54.434909h-45.656436v10.779927h45.656436v-10.779927z m-45.651781 27.810909h45.656436v-10.868364h-45.656436v10.868364zM616.955345 895.394909h13.768146c1.326545-2.294691 2.625164-4.649891 3.895854-7.070254l6.521019 2.085236c-0.968145 1.6896-1.931636 3.351273-2.899782 4.980364h22.192873v5.888a42.961455 42.961455 0 0 1-10.412219 15.583418c3.318691 1.568582 6.697891 3.137164 10.146909 4.7104l-3.98429 6.251054a414.841018 414.841018 0 0 0-11.687564-6.339491c-6.823564 4.891927-15.425164 8.7552-25.814109 11.589819a316.848873 316.848873 0 0 1-3.081309-6.334837c8.820364-1.9968 16.276945-4.864 22.3744-8.610909a1043.451345 1043.451345 0 0 0-16.304873-8.150109 179.060364 179.060364 0 0 0 5.618036-8.606255h-10.328436v-5.976436z m0.996073-31.157527h20.8384v-20.289164h6.697891v20.289164h17.389382v5.976436h-17.389382v5.5296l2.718255-3.081309a310.053236 310.053236 0 0 1 14.1312 10.868364l-4.352 5.073454a177.105455 177.105455 0 0 0-12.502109-10.593745v10.323782h-6.697891v-12.678982a90.512291 90.512291 0 0 1-19.204655 15.122618 105.849018 105.849018 0 0 0-3.895854-5.524945 100.324073 100.324073 0 0 0 20.922181-15.034182h-18.660072v-5.981091z m2.359855-14.042764l5.157236-3.5328a399.760291 399.760291 0 0 1 8.429382 10.686837l-5.618036 3.98429a263.4752 263.4752 0 0 0-7.968582-11.138327z m10.230691 57.7024c4.286836 1.931636 8.694691 3.956364 13.228218 6.069527a38.818909 38.818909 0 0 0 9.783854-12.590545h-18.8416c-1.396364 2.234182-2.778764 4.407855-4.170472 6.521018z m28.2624-61.686691l5.613381 3.714328a192.121018 192.121018 0 0 1-9.965381 12.050618c-1.391709-1.210182-3.016145-2.476218-4.891928-3.802764a164.594036 164.594036 0 0 0 9.243928-11.962182z m16.481745-3.076654l7.251782 1.084509a156.150691 156.150691 0 0 1-4.440436 16.393309h27.717818v6.157964h-5.711128c-1.508073 17.752436-5.371345 31.855709-11.589818 42.300509 4.891927 6.642036 11.1104 12.078545 18.660073 16.304872-1.931636 2.653091-3.565382 5.040873-4.891927 7.154037-7.368145-4.770909-13.498182-10.4448-18.390109-17.026328a86.774691 86.774691 0 0 1-19.837673 17.933964 52.061091 52.061091 0 0 0-5.157236-5.706473c8.448-5.552873 15.304145-11.869091 20.559127-18.930036-4.891927-8.452655-8.122182-18.203927-9.690764-29.253818-1.266036 2.229527-2.601891 4.314764-3.984291 6.2464-1.210182-1.750109-2.718255-3.681745-4.528872-5.794909 7.000436-10.081745 11.678255-22.3744 14.033454-36.864z m17.570909 23.640436h-16.937891a26.330764 26.330764 0 0 1-0.996072 2.262109c1.084509 12.8 4.105309 23.761455 9.05309 32.879709 4.836073-8.815709 7.796364-20.5312 8.880873-35.141818zM708.980364 891.499055c4.286836-1.1776 8.452655-2.369164 12.502109-3.579346v-20.698764h-11.412946v-6.516363h11.412946V843.403636h6.697891v17.300946h9.872291v6.516363h-9.872291v18.613528a390.376727 390.376727 0 0 0 8.429381-2.760146c0.060509 2.7136 0.242036 5.073455 0.539928 7.0656-3.109236 0.996073-6.102109 1.978182-8.969309 2.946328v27.401309c0 6.823564-2.988218 10.295855-8.964655 10.412218-1.871127 0.060509-4.649891 0.032582-8.336291-0.093091a91.983127 91.983127 0 0 0-1.084509-7.517091c3.323345 0.363055 5.860073 0.544582 7.610182 0.544582 2.718255 0 4.077382-1.540655 4.077382-4.617309v-23.915055c-4.137891 1.387055-8.005818 2.718255-11.594473 3.984291l-0.907636-7.787054z m40.578327 9.150836h18.660073v-11.506036h-21.103709c-0.6656 18.566982-4.947782 32.907636-12.86051 43.021963a79.797527 79.797527 0 0 0-4.896581-5.706473c7.549673-9.299782 11.324509-23.579927 11.324509-42.84509v-35.323346h53.438836v26.270255h-6.516364v-2.811346h-40.401454v11.231418h21.015273v-9.513891h6.521018v9.513891h23.915054v6.157964h-23.915054v11.506036h18.8416v30.612946h-6.521018v-5.254982h-30.976v5.254982h-6.521019v-30.608291z m38.046254-46.377891h-40.401454v11.506036h40.401454v-11.506036z m-0.544581 52.354327h-30.976v13.493528h30.976v-13.493528zM806.265018 851.009164h23.915055v56.706327h-17.389382v7.335564h-6.521018v-64.041891z m17.389382 6.432581h-10.868364v43.841164h10.868364v-43.841164z m21.015273 23.282037c0 21.313164-4.947782 38.465164-14.852655 51.446691-1.871127-2.052655-3.588655-3.863273-5.161891-5.431855 8.876218-11.231418 13.316655-26.5728 13.316655-46.014836v-32.791273h47.639273v32.791273h-6.516364v-3.537455h-34.425018v3.537455z m34.420363-26.358691h-34.425018v16.393309h34.425018v-16.393309z m3.5328 31.972073l4.891928 5.254981a254.845673 254.845673 0 0 1-28.988509 17.933964v8.606255c0 3.625891 1.8432 5.436509 5.5296 5.436509h11.952872c3.802764 0 6.069527-1.964218 6.795637-5.888 0.539927-2.657745 0.996073-6.251055 1.359127-10.775273 2.290036 0.963491 4.5568 1.810618 6.790982 2.532073-0.605091 4.230982-1.210182 7.763782-1.810618 10.5984-1.210182 6.460509-5.254982 9.690764-12.139055 9.690763h-14.4896c-7.126109 0-10.686836-3.439709-10.686836-10.328436v-36.682473h6.697891v19.656146a183.626473 183.626473 0 0 0 24.096581-16.034909zM951.775418 883.167418c-0.274618 4.947782-1.633745 8.769164-4.077382 11.454837-2.443636 2.690327-5.720436 4.030836-9.825745 4.030836-3.565382 0-7.861527-1.750109-12.907055-5.254982-3.230255-2.141091-5.808873-3.211636-7.740509-3.211636-4.500945 0-6.842182 2.834618-7.023709 8.513163h-7.019054c0.209455-4.947782 1.568582-8.769164 4.077381-11.459491 2.504145-2.685673 5.794909-4.026182 9.872291-4.026181 3.407127 0 7.247127 1.419636 11.501382 4.254254 4.258909 2.8672 7.447273 4.305455 9.560437 4.305455a5.632 5.632 0 0 0 4.75229-2.3552c1.1776-1.573236 1.796655-3.653818 1.85251-6.251055h6.977163z" fill="#2186AB" p-id="32535"></path></svg>