<?xml version="1.0" standalone="no"?><!DOCTYPE svg PUBLIC "-//W3C//DTD SVG 1.1//EN" "http://www.w3.org/Graphics/SVG/1.1/DTD/svg11.dtd"><svg t="1573619117587" class="icon" viewBox="0 0 1024 1024" version="1.1" xmlns="http://www.w3.org/2000/svg" p-id="21543" xmlns:xlink="http://www.w3.org/1999/xlink" width="64" height="64"><defs><style type="text/css"></style></defs><path d="M686.293248 1024c91.136 0 164.352-34.304 164.352-76.288S776.917248 870.4 686.293248 870.4s-164.352 33.792-164.352 76.288S595.669248 1024 686.293248 1024zM337.621248 1024c90.624 0 164.352-34.304 164.352-76.288S428.245248 870.4 337.621248 870.4s-164.352 33.792-164.352 76.288S246.997248 1024 337.621248 1024z" fill="#F5B824" p-id="21544"></path><path d="M166.613248 724.48a354.816 354.816 0 0 0 343.552 243.712h3.072a354.816 354.816 0 0 0 343.552-243.712c51.2 108.032 51.2 86.016 61.44 77.312 85.504-137.216-39.936-294.912-39.936-294.912L843.989248 388.096C840.917248 0 528.597248 0 512.213248 0S183.509248 0 183.509248 388.096L146.133248 506.88s-125.44 158.72-40.96 294.912c9.728 6.656 10.24 30.72 61.44-77.312z" fill="#121213" p-id="21545"></path><path d="M593.109248 348.16c36.864 0 66.56-41.984 66.56-93.696s-29.696-93.696-66.56-93.696S526.549248 204.8 526.549248 256s29.696 92.16 66.56 92.16zM422.101248 348.16c36.864 0 66.56-40.96 66.56-92.16s-29.696-93.696-66.56-93.696S355.541248 204.8 355.541248 256 383.189248 348.16 422.101248 348.16z" fill="#FFFFFF" p-id="21546"></path><path d="M443.605248 294.912c15.872 0 28.672-17.92 28.672-40.448s-12.8-40.448-28.672-40.448-28.672 18.432-28.672 40.448 12.8 40.448 28.672 40.448zM616.149248 300.544c15.872 0 28.672-17.92 28.672-40.448s-12.8-40.448-28.672-40.448-28.672 18.432-28.672 40.448 12.8 40.448 28.672 40.448z" fill="#161616" p-id="21547"></path><path d="M512.213248 951.808c376.832 0 269.312-484.864 269.312-484.864a421.376 421.376 0 0 1-269.312 83.456 420.864 420.864 0 0 1-269.312-83.456s-107.52 484.864 269.312 484.864z" fill="#FAFAFB" p-id="21548"></path><path d="M275.669248 606.72c-3.072 34.816-7.68 88.064-7.168 115.2 0 42.496 26.624 45.056 86.528 51.2s47.616-10.24 47.616-37.376V650.24a414.208 414.208 0 0 0 109.056 7.68 465.408 465.408 0 0 0 366.08-153.6 475.648 475.648 0 0 0-36.864-117.76 371.712 371.712 0 0 1-328.704 161.792A371.712 371.712 0 0 1 183.509248 388.096a531.456 531.456 0 0 0-37.376 118.784 455.168 455.168 0 0 0 129.536 99.84z" fill="#D53118" p-id="21549"></path><path d="M512.725248 486.912a409.6 409.6 0 0 0 209.408-51.2v-4.096c0-1.024-8.192-15.36-31.744-22.016a494.08 494.08 0 0 0-178.176-35.84 494.08 494.08 0 0 0-175.616 35.84c-25.6 8.704-35.84 15.36-35.84 24.064a7.68 7.68 0 0 0 0 4.096 409.6 409.6 0 0 0 211.968 49.152z" fill="#F0B225" p-id="21550"></path></svg>