<?xml version="1.0" standalone="no"?><!DOCTYPE svg PUBLIC "-//W3C//DTD SVG 1.1//EN" "http://www.w3.org/Graphics/SVG/1.1/DTD/svg11.dtd"><svg t="1573806117189" class="icon" viewBox="0 0 1024 1024" version="1.1" xmlns="http://www.w3.org/2000/svg" p-id="49627" xmlns:xlink="http://www.w3.org/1999/xlink" width="64" height="64"><defs><style type="text/css"></style></defs><path d="M224 396.8c-12.8 12.8-25.6 32-25.6 51.2 0 19.2 6.4 38.4 19.2 51.2 19.2 12.8 38.4 19.2 57.6 19.2 19.2 0 38.4-6.4 51.2-19.2 12.8-12.8 19.2-32 19.2-51.2 0-19.2-6.4-38.4-19.2-51.2-25.6-25.6-76.8-25.6-102.4 0zM505.6 518.4c19.2 0 38.4-6.4 51.2-19.2 12.8-12.8 19.2-32 19.2-51.2 0-19.2-6.4-38.4-19.2-51.2-12.8-12.8-32-19.2-51.2-19.2-19.2 0-38.4 6.4-51.2 19.2-12.8 12.8-25.6 32-25.6 51.2 0 19.2 6.4 38.4 19.2 51.2 19.2 12.8 38.4 19.2 57.6 19.2zM736 518.4c19.2 0 38.4-6.4 51.2-19.2 12.8-12.8 19.2-32 19.2-51.2 0-19.2-6.4-38.4-19.2-51.2-12.8-12.8-32-19.2-51.2-19.2-19.2 0-38.4 6.4-51.2 19.2-12.8 12.8-19.2 32-19.2 51.2 0 19.2 6.4 38.4 19.2 51.2 12.8 12.8 32 19.2 51.2 19.2z" fill="#41C141" p-id="49628"></path><path d="M512 19.2C236.8 19.2 19.2 224 19.2 467.2c0 108.8 44.8 217.6 121.6 294.4V960c0 19.2 12.8 32 25.6 38.4 6.4 0 12.8 6.4 19.2 6.4 12.8 0 19.2-6.4 25.6-12.8l153.6-128c6.4-6.4 12.8-19.2 19.2-25.6 0-12.8 0-25.6-6.4-32s-19.2-12.8-25.6-19.2c-12.8 0-25.6 0-32 6.4l-83.2 70.4v-128c0-12.8-6.4-25.6-12.8-32-70.4-64-108.8-153.6-108.8-249.6 0-198.4 185.6-364.8 409.6-364.8 224 0 409.6 160 409.6 364.8 0 198.4-185.6 364.8-409.6 364.8-12.8 0-19.2 6.4-32 12.8s-12.8 19.2-12.8 32c0 25.6 19.2 44.8 44.8 44.8H512c275.2 0 492.8-204.8 492.8-448S787.2 19.2 512 19.2z" fill="#41C141" p-id="49629"></path></svg>