<?xml version="1.0" standalone="no"?><!DOCTYPE svg PUBLIC "-//W3C//DTD SVG 1.1//EN" "http://www.w3.org/Graphics/SVG/1.1/DTD/svg11.dtd"><svg t="1573616249545" class="icon" viewBox="0 0 1024 1024" version="1.1" xmlns="http://www.w3.org/2000/svg" p-id="11724" xmlns:xlink="http://www.w3.org/1999/xlink" width="48" height="48"><defs><style type="text/css"></style></defs><path d="M512 64c247.296 0 448 200.704 448 448S759.296 960 512 960 64 759.296 64 512 264.704 64 512 64z m0 85.333333A362.794667 362.794667 0 0 0 149.333333 512c0 200.192 162.474667 362.666667 362.666667 362.666667s362.666667-162.474667 362.666667-362.666667-162.474667-362.666667-362.666667-362.666667z" p-id="11725" fill="#ffffff"></path><path d="M512 234.666667a117.162667 117.162667 0 0 1 117.333333 117.333333A117.162667 117.162667 0 0 1 512 469.333333a117.162667 117.162667 0 0 1-117.333333-117.333333A117.162667 117.162667 0 0 1 512 234.666667z m0 555.392a281.6 281.6 0 0 1-234.666667-125.952c1.152-77.824 156.458667-120.448 234.666667-120.448 77.824 0 233.514667 42.624 234.666667 120.448a281.6 281.6 0 0 1-234.666667 125.952z" p-id="11726" fill="#ffffff"></path></svg>