<?xml version="1.0" standalone="no"?><!DOCTYPE svg PUBLIC "-//W3C//DTD SVG 1.1//EN" "http://www.w3.org/Graphics/SVG/1.1/DTD/svg11.dtd"><svg t="1573616369311" class="icon" viewBox="0 0 1529 1024" version="1.1" xmlns="http://www.w3.org/2000/svg" p-id="12506" xmlns:xlink="http://www.w3.org/1999/xlink" width="71.671875" height="48"><defs><style type="text/css"></style></defs><path d="M692.4307300822475-3.1424008992963763c-11.143473020030324 3.9711288027508047-31.65759254469329 9.623908096561905-45.58693150567763 12.561733306727039-113.37976626762003 23.90781328624722-255.51981894761263 124.77649856552604-303.8115759245019 215.6059285887218-7.086235970239641 13.321513454407691-18.194250747562375 31.2422430711186-24.68279213771325 39.82271664860696-6.4936045393412485 8.575408114244416-13.478535872809188 22.433835217920706-15.529946668248707 30.791439982943444-2.0514107954395167 8.357604765022744-7.050777727532052 18.878055888744598-11.108017091376293 23.3810305634665-4.057237049790685 4.502976988775465-9.689756804679579 22.737749128235805-12.51614413753157 40.521718179521-2.831455110149492 17.783969051285183-8.448778475306565 43.57604210213611-12.490819135365426 57.31797049336243-9.63403902304979 32.74661391890878-9.740406809011873 133.36203760625827-0.17728427137725994 170.2317349690219 3.9458014865311 15.21083868225533 9.826517370105313 42.340129236007016 13.063188713288051 60.29124931812801 3.241736806426683 17.946054618877056 10.26718953179259 38.19678393917644 15.621122692586082 44.99936785207675 5.353930846739934 6.807649376144237 9.730278196577549 15.72242732935779 9.730278196577549 19.820183456992883 0 4.092692978444712 6.270735726875638 17.00392473657521 13.929338960984351 28.68937686911808 7.663668697352649 11.685449818489305 19.62770742399092 32.05774331448261 26.592376904483093 45.272888982928215 41.144737761775914 78.08028383265717 205.48056277154538 195.89717838093495 290.40395422305437 208.20565009573266 13.468404946321302 1.9501084727213756 33.69887241364493 6.797518449656357 44.95884646017879 10.773710401597539 24.915791876666724 8.788148314275698 144.7992912960623 9.953147009043159 171.194124390246 1.6664564153820314 9.730278196577549-3.059389385859042 30.229201331508705-8.271496517982863 45.5514755770236-11.5841451817176 34.06356956883378-7.369888027578984 47.521843588667174-32.4477654718376 14.359884824290868-26.754464786128533-75.98835164531967 13.047992323556231-94.56249362374916 14.33455750807116-171.38153958811108 11.888059092032714-84.42193373089442-2.6896290814798203-155.19817824409023-19.87083808943229-187.13942053206938-45.42991140132971-4.330758180642146-3.464607932945855-21.086489102585602-13.09864464194208-37.23439451795241-21.41572801506686-33.916678076920164-17.459795602047873-128.9654307174985-106.69874653041364-142.87957560280455-134.14714507015867-4.943649150462744-9.750537735499753-10.540710662644052-18.86792496225672-12.440166816979573-20.26085793273372-7.749779258446089-5.678106610030806-44.97910599910099-79.75180571128311-48.37279976068522-96.23907865156548-2.005823940297607-9.750537735499753-5.91617181222824-20.549575453317004-8.691909140747937-23.99392153328709-17.25212086526053-21.420793478310795-14.765101057324111-243.94073922913893 3.0999107777570103-277.38635236490813 4.467518746067878-8.357604765022744 8.144864564991456-19.75433706292877 8.180322807699044-25.326073572943926 0.0658487081176749-10.317841850178443 3.2468022696706242-17.388881430686254 26.561986439073014-59.009751910910595 62.60605263198467-111.76396217062384 150.82183320830615-186.24287750490933 274.81828745912225-232.03241828413047 16.715209530045488-6.1744965533478755 35.57806902905826-13.721666538250565 41.91971661324196-16.770924997621723 34.463720338623084-16.588577577054085 235.38052519057285-3.748259990285197 261.9931639480316 16.74053453221163 2.785868255007581 2.1425868197768976 15.322274245514915 6.620236492332655 27.85868023602226 9.953147009043159 12.536405990507337 3.3329105167105038 25.736355269221118 8.46903801422877 29.332658304348772 11.416991836828227 3.5963030351276406 2.9479538225994575 17.910598690223036 10.63188668698143 31.81461264904123 17.07483890793683 22.266684187084888 10.317841850178443 57.312905030118486 37.46232879366197 100.53944636679756 77.87767687316732 45.37419361969991 42.4262374830469 102.46422752329924 131.23971263945722 109.81385369790246 170.83956047559863 1.9551739359653162 10.505254733990022 6.995062259955819 24.404203229564292 11.214387191391943 30.877548229983333 25.113333372912646 38.58680609653144 25.05255244209247 239.57452280578917-0.08611056109343963 279.4833500154895-4.3814104990279965 6.964669480492176-9.385842894364474 20.76738111659223-11.118145703810619 30.674941270493488-8.048625391463695 46.068127373316464-89.53779937543689 164.39660825464313-126.87349621610745 184.22185717487994-24.67266121122536 13.103710105186023-31.91085182256899 5.576801973259104-38.961631864154604-40.53184679195531-2.953019285843399-19.29340304826572-9.456754751672523-41.914651149998-14.451058534574685-50.27225591502076-4.999366932092534-8.357604765022744-10.601493907517783-22.36798882385659-12.45536089265784-31.130809821912592-1.848803835949673-8.767886461299932-7.7953661135879955-19.94681540998429-13.210080205201665-24.844877705305123-5.414714091613667-4.903127758564775-9.841711445783575-10.54577612588799-9.841713759837138-12.541471453751276 0-8.636191359118147-65.54894330539376-70.1684190066192-88.64125634827698-83.2062827177411-53.09864556192632-29.986070666067327-54.34468935454324-37.76117492667957-14.299101579417124-89.58845169382273l28.75522557723576-37.214132664976646 0.23299973895349202-53.589970041999415c0.303913910315108-69.19589865890725-33.70393787688887-119.94934812751328-101.8513365534786-152.01215921929338-149.17563864589994-70.183615396351-299.6277092357733 153.87109166767735-175.43877663790178 261.2587088025171 24.829681315573293 21.47144579669665 11.786754455261011 45.45017094025192-38.500695535438005 70.7711790499519-54.673928267024486 27.534506786784934-122.6643045252128 108.67924546854502-101.8412079410443 121.54489268558723 2.6440422263379095 1.6360636359183842 18.02709971672656-11.183994411928294 34.19019920777161-28.481702132330724 59.33899082339184-63.522857512120375 93.52919003116351-86.63543240797937 152.71622389939782-103.2442718380092 51.68038527522958-14.496645389716592 156.71774316755864-2.684563618235878 179.60744693689858 20.205142465157486 3.90021463138919 3.90021463138919 15.276687390373006 10.510320197233966 25.28048671780202 14.694186885962498 27.89920162792022 11.655059353079219 78.29808949593239 64.51563971280808 91.39166867463051 95.85412195745447 4.052171586546744 9.69481995386996 9.877169688491161 19.1769020217622 12.946687686784529 21.076358176097717 3.0695203123469237 1.8994561543355235 5.683169759221188 8.443713012062624 5.804736248968656 14.547297708102443 0.1215641756939069 6.103584696039819 3.738129063797313 20.21527107759181 8.038494464975813 31.35874409762213 4.295302251988119 11.143473020030324 9.517537996546261 40.53184679195531 11.604407034693365 65.3058126399524 4.026846584380597 47.90680028277825 12.708622484587092 63.42155287534868 30.219070405020823 54.010384978818074 17.733316732899333-9.522603459790204 105.53881329889006-101.14220641013026 124.23958723031097-129.62391085651458l31.657590230639748-48.21577734228375c6.50373546582913-9.89742922741337 11.82221038391503-20.83829297390028 11.8222126979686-24.307966370090078 0-3.474736545380174 3.7989099946174876-13.605165511747032 8.443713012062624-22.52500892820452 4.639737554201195-8.914777953213548 11.265037195724235-28.745092336694313 14.719514202182205-44.06736658220922 3.4595424697019124-15.322274245514915 10.19627767448453-40.39508622652959 14.977838943301846-55.71736278609807 12.602254698625009-40.384957614095285 15.747752331523934-139.52640323311832 5.424845018101551-170.90034372047222-4.366214109296173-13.26073252358752-12.430035890491693-41.20552100664965-17.91566415346697-62.09953176217973-13.301253915485486-50.61162575398987-27.473723541911205-89.21869138944353-36.73800226058178-100.0481195726709-4.158541686562387-4.872737293154687-16.41636108297432-23.669748084049772-27.230595190523392-41.77789058457229-29.094593102151332-48.71216959965437-103.84196641809801-121.3726738774539-158.71850164461233-154.28643882719854-4.457387819579994-2.6744326917479966-14.278839726441364-8.940102955379697-21.83107517458798-13.929341275037906-7.547169984902683-4.984170542360712-16.21881727267486-9.066734908371103-19.26807573204602-9.066734908371103-5.485628262975284 0-45.40458408511-16.37077422783241-61.35494569017735-25.15892022805456-4.5333674541855515-2.4971507344242965-17.06977344469289-6.032670524678205-27.85868023602226-7.856149358461734-10.788906791329365-1.8234765197299665-32.731417529176944-7.678865087084475-48.76282191804021-13.00747093165826-36.3175896378167-12.080537439088236-131.80195129089196-13.265797986831458-163.33291419664738-2.031151256517313m138.69570891407605 313.66848607407087c54.8258829081285 28.355072493392882 90.40395193718678 105.67557386431582 71.66265892792143 155.7654800447154-35.142460016561365 93.92934080095274-124.00151971405997 130.7230608431643-201.27643654389453 83.34304328316679-26.237812989835685-16.087122170493068-51.84247315687502-43.86982508596335-52.30847263478201-56.765860454362-0.0962391735277615-2.613651760927824-4.573888846083521-13.868558030164168-9.958212472287101-25.012031050194494-12.612385625112895-26.111181036844286-12.612385625112895-46.16943201008814 0-69.7024195287122 5.571736510015162-10.39888463397438 10.13042896636686-21.43092440479868 10.13043128042042-24.520704256067813 0-18.118273427010376 50.07977756796523-63.77611910404965 77.82702224072789-70.95859193376349 23.735596792167456-6.144106087937789 85.95162726679716-1.4435852888628622 103.92300920189393 7.851083895217791" p-id="12507" fill="#ffffff"></path></svg>