<?xml version="1.0" standalone="no"?><!DOCTYPE svg PUBLIC "-//W3C//DTD SVG 1.1//EN" "http://www.w3.org/Graphics/SVG/1.1/DTD/svg11.dtd"><svg t="1573615671959" class="icon" viewBox="0 0 1024 1024" version="1.1" xmlns="http://www.w3.org/2000/svg" p-id="8598" xmlns:xlink="http://www.w3.org/1999/xlink" width="16" height="16"><defs><style type="text/css"></style></defs><path d="M981.617 976.197 981.617 976.197l0-1.64 0-1.645c0-3.27 0-6.555-1.645-9.845-21.345-165.815-131.335-303.699-279.074-367.729 87.005-59.1 142.825-157.602 142.825-269.224 0-178.942-147.76-325.052-328.334-325.052-180.577 0-328.322 146.11-328.322 325.052 0 111.622 57.445 210.124 142.817 269.224C182.132 657.723 73.782 793.983 50.807 958.152c-1.642 4.915-3.287 9.845-3.287 14.76l0 4.935c0 26.265 21.345 45.97 47.612 45.97 26.265 0 47.605-21.345 47.605-45.97l0 0 1.632 0c21.34-182.22 172.375-321.764 357.884-326.689 4.92 0 8.2 0 13.13 0 4.915 0 8.21 0 13.125 0 185.505 6.565 338.189 146.105 359.529 325.039l1.64 0 0 0c0 26.275 21.35 45.975 47.62 45.975C960.273 1023.817 981.617 1002.472 981.617 976.197L981.617 976.197zM280.627 326.107c0-128.045 105.077-233.117 234.762-233.117 129.69 0 234.764 103.432 234.764 233.117 0 121.485-93.575 219.992-213.419 231.477-6.56 0-14.775 0-21.345 0-6.56 0-14.775 0-21.35 0C374.202 546.099 280.627 447.591 280.627 326.107z" p-id="8599" fill="#ffffff"></path></svg>