<?xml version="1.0" standalone="no"?><!DOCTYPE svg PUBLIC "-//W3C//DTD SVG 1.1//EN" "http://www.w3.org/Graphics/SVG/1.1/DTD/svg11.dtd"><svg t="1573806126428" class="icon" viewBox="0 0 1024 1024" version="1.1" xmlns="http://www.w3.org/2000/svg" p-id="49800" xmlns:xlink="http://www.w3.org/1999/xlink" width="64" height="64"><defs><style type="text/css"></style></defs><path d="M526.628571 76.8c-241.371429 0-438.857143 197.485714-438.857142 438.857143s197.485714 438.857143 438.857142 438.857143 438.857143-197.485714 438.857143-438.857143-197.485714-438.857143-438.857143-438.857143z m106.057143 599.771429l43.885715 142.628571-73.142858 21.942857-43.885714-146.285714c-10.971429 0-21.942857 3.657143-36.571428 3.657143s-21.942857 0-36.571429-3.657143l-43.885714 146.285714-69.485715-21.942857 43.885715-142.628571C329.142857 636.342857 266.971429 548.571429 266.971429 442.514286c0-142.628571 113.371429-256 256-256s256 113.371429 256 256c3.657143 106.057143-58.514286 193.828571-146.285715 234.057143z" fill="#41C141" p-id="49801"></path><path d="M526.628571 263.314286c-98.742857 0-179.2 80.457143-179.2 179.2s80.457143 179.2 179.2 179.2 179.2-80.457143 179.2-179.2-80.457143-179.2-179.2-179.2z m0 288.914285c-62.171429 0-109.714286-47.542857-109.714285-109.714285s47.542857-109.714286 109.714285-109.714286 109.714286 47.542857 109.714286 109.714286-51.2 109.714286-109.714286 109.714285z" fill="#41C141" p-id="49802"></path></svg>