<?xml version="1.0" standalone="no"?><!DOCTYPE svg PUBLIC "-//W3C//DTD SVG 1.1//EN" "http://www.w3.org/Graphics/SVG/1.1/DTD/svg11.dtd"><svg t="1573805035334" class="icon" viewBox="0 0 1024 1024" version="1.1" xmlns="http://www.w3.org/2000/svg" p-id="12646" xmlns:xlink="http://www.w3.org/1999/xlink" width="64" height="64"><defs><style type="text/css"></style></defs><path d="M769.828571 430.445714c-8.777143-135.314286-3.510857-199.826286-69.193142-282.331428C591.286857 28.306286 426.057143 33.938286 410.038857 97.718857 306.468571 89.965714 271.286857 209.481143 259.657143 273.261714c-11.702857 63.853714-16.091429 286.427429-16.091429 325.339429 0 38.912-30.573714 255.268571-30.573714 255.268571s555.373714-12.434286 600.502857 0c-20.333714-28.086857-37.814857-277.065143-43.666286-423.424" fill="#28120A" p-id="12647"></path><path d="M414.72 88.795429s-6.582857 76.288 37.156571 88.502857c-21.796571 9.654857-62.902857-3.291429-37.229714-88.502857" fill="#513026" p-id="12648"></path><path d="M418.742857 782.628571h179.931429V552.448h-179.931429z" fill="#FCDCD4" p-id="12649"></path><path d="M146.285714 792.576s209.042286-69.485714 239.542857-82.066286c68.608 34.084571 77.385143 61.659429 77.385143 61.659429l20.333715 2.56h65.316571l87.186286-64.219429 238.957714 80.237715v229.083428H146.285714v-227.254857z" fill="#FF7A7A" p-id="12650"></path><path d="M424.374857 598.747429s40.813714 27.501714 83.309714 23.04c42.422857-4.388571 53.540571-7.460571 87.698286-23.04 0 9.581714 0 0 0 0s-39.643429 31.817143-85.504 31.451428c-25.819429-0.146286-55.222857-10.678857-85.504-31.451428" fill="#D8AFAD" p-id="12651"></path><path d="M712.850286 368.566857c-15.433143-0.731429-27.355429 24.137143-33.353143 40.082286 2.779429-55.954286-0.219429-118.052571-33.792-153.819429-36.571429-38.985143-79.140571-62.390857-135.021714-62.390857-58.660571 0-111.981714 23.04-148.918858 65.536-27.648 31.744-30.281143 90.843429-24.868571 142.043429-6.582857-14.921143-17.042286-32.109714-29.915429-31.451429-16.310857 4.461714-10.898286 71.094857 18.870858 94.354286 5.266286 4.169143 10.605714 5.705143 14.482285 7.606857 2.194286 19.382857 7.314286 35.547429 19.236572 56.173714 27.867429 48.274286 71.68 79.140571 105.325714 91.428572 14.116571 5.12 29.988571 5.558857 45.787429 5.558857 13.897143 0 28.013714-0.292571 40.740571-4.388572A202.678857 202.678857 0 0 0 657.188571 533.942857c12.507429-20.333714 17.846857-40.228571 20.187429-62.390857 4.169143-1.974857 10.532571-3.437714 16.676571-8.557714 29.696-25.088 35.108571-89.965714 18.797715-94.427429" fill="#FCDCD4" p-id="12652"></path><path d="M462.409143 197.851429S615.131429 248.685714 649.508571 291.913143c28.086857 35.328 41.106286 83.382857 35.108572 97.133714-6.144 13.750857 20.041143-95.232 16.530286-107.081143-3.510857-11.702857-62.025143-76.288-70.217143-84.114285-8.192-7.753143-83.382857-32.475429-83.382857-32.475429l-85.138286 32.475429z" fill="#28120A" p-id="12653"></path><path d="M510.537143 774.144s-21.650286 14.409143-33.499429 23.990857c-11.776 9.508571-26.916571 46.153143-54.491428 51.931429-5.485714-9.947429-3.584-16.457143-3.584-16.457143l33.499428-59.465143h26.550857s21.723429-3.803429 31.524572 0" fill="#DBDBDB" p-id="12654"></path><path d="M419.547429 648.630857s-6.802286 62.902857 87.04 121.636572c-33.426286 17.846857-35.620571 18.870857-46.957715 38.765714-12.434286 23.113143-30.939429 43.52-36.278857 45.641143-7.606857-47.177143-31.012571-85.430857-32.182857-94.866286-1.024-9.508571-9.654857-38.765714-7.460571-49.298286 2.194286-10.459429 35.84-61.878857 35.84-61.878857" fill="#FFFFFF" p-id="12655"></path><path d="M502.198857 774.144s21.723429 14.409143 33.645714 23.990857c11.776 9.508571 30.573714 50.761143 58.294858 56.539429 5.412571-9.947429 0-21.065143 0-21.065143l-33.645715-59.465143h-26.697143s-21.723429-3.803429-31.597714 0" fill="#DBDBDB" p-id="12656"></path><path d="M597.796571 648.630857s6.875429 62.902857-87.186285 121.636572c33.499429 17.846857 35.693714 18.870857 47.030857 38.765714 12.434286 23.113143 31.085714 43.52 36.498286 45.641143 7.533714-47.177143 31.085714-85.430857 32.182857-94.866286 1.097143-9.508571 9.728-38.765714 7.533714-49.298286-2.194286-10.459429-36.059429-61.878857-36.059429-61.878857" fill="#FFFFFF" p-id="12657"></path></svg>