<?xml version="1.0" standalone="no"?><!DOCTYPE svg PUBLIC "-//W3C//DTD SVG 1.1//EN" "http://www.w3.org/Graphics/SVG/1.1/DTD/svg11.dtd"><svg t="1572915600037" class="icon" viewBox="0 0 1024 1024" version="1.1" xmlns="http://www.w3.org/2000/svg" p-id="1623" xmlns:xlink="http://www.w3.org/1999/xlink" width="16" height="16"><defs><style type="text/css"></style></defs><path d="M563.88 300.304c-91.465 0-165.903 74.315-165.903 165.78 0 91.223 74.316 165.66 165.903 165.66 91.587 0 166.025-74.315 166.025-165.66 0.121-91.465-74.438-165.78-166.025-165.78z" fill="#FF5F89" p-id="1624"></path><path d="M509.633 74.072c-242.043 0-438.353 196.19-438.353 438.232 0 7.663 0.243 15.325 0.608 22.866v415.366h437.624c242.043 0 438.231-196.31 438.231-438.232S751.676 74.072 509.633 74.072z m291.06 392.134v5.96c0 1.217-0.122 2.433-0.122 3.65 0 0.729 0 1.58-0.121 2.31-0.122 1.46-0.122 2.798-0.243 4.257 0 0.608-0.122 1.216-0.122 1.825-0.122 1.702-0.243 3.405-0.487 4.986 0 0.244 0 0.609-0.121 0.852-0.244 1.946-0.365 3.892-0.73 5.96C784.03 612.284 684.415 702.533 563.88 702.533c-58.382 0-111.656-21.285-153.01-56.315l-34.056 34.057 55.95 55.95-49.99 49.989-55.95-55.95-64.95 64.707-49.99-49.99 64.707-64.706-59.234-59.112 49.99-49.99 59.234 59.112 37.583-37.462c-23.474-36.61-37.097-80.032-37.097-126.495 0-130.387 106.183-236.326 236.691-236.326 91.83 0 171.62 52.422 210.906 128.927 0.122 0.243 0.244 0.365 0.365 0.608 0.73 1.46 1.46 2.92 2.19 4.5 0.486 0.974 0.973 1.947 1.337 2.92l1.095 2.189c0.608 1.46 1.216 2.92 1.946 4.257 0.122 0.365 0.243 0.608 0.365 0.973 0.73 1.703 1.46 3.527 2.19 5.23v0.122c3.527 8.879 6.446 18 8.878 27.366v0.122c0.487 1.703 0.852 3.406 1.217 5.109 0 0.121 0.121 0.364 0.121 0.486l1.095 4.744c0.122 0.364 0.122 0.73 0.243 0.973 0.243 1.46 0.608 2.919 0.852 4.257 0.121 0.486 0.243 0.973 0.243 1.46 0.243 1.337 0.486 2.553 0.608 3.891 0.122 0.609 0.243 1.338 0.365 1.946 0.122 1.217 0.365 2.311 0.486 3.528 0.122 0.851 0.244 1.58 0.365 2.432 0.122 0.973 0.244 2.068 0.365 3.163 0.122 0.973 0.243 1.946 0.365 2.797 0.122 0.973 0.122 1.946 0.243 2.798 0.122 1.094 0.244 2.067 0.244 3.162 0.121 0.851 0.121 1.824 0.121 2.797 0.122 1.095 0.122 2.19 0.244 3.284 0 0.852 0.121 1.825 0.121 2.676 0 1.095 0.122 2.19 0.122 3.284v5.96c0.243 0.122 0.243 0.122 0.243 0.243 0-0.121 0 0 0 0z" fill="#FF5F89" p-id="1625"></path></svg>