<?xml version="1.0" standalone="no"?><!DOCTYPE svg PUBLIC "-//W3C//DTD SVG 1.1//EN" "http://www.w3.org/Graphics/SVG/1.1/DTD/svg11.dtd"><svg t="1573619191322" class="icon" viewBox="0 0 1219 1024" version="1.1" xmlns="http://www.w3.org/2000/svg" p-id="27430" xmlns:xlink="http://www.w3.org/1999/xlink" width="76.1875" height="64"><defs><style type="text/css"></style></defs><path d="M595.382857 291.693714c31.646476 0.097524 54.320762-21.113905 55.393524-51.931428 1.219048-33.840762-23.405714-59.63581-56.661333-59.392-41.545143 0.390095-66.511238 22.528-65.926096 58.465524 0.585143 32.719238 25.892571 52.662857 67.242667 52.857904zM291.449905 180.370286c-39.643429-0.877714-65.974857 20.089905-66.950095 53.394285-0.975238 33.353143 25.84381 56.905143 66.462476 58.270477 34.474667 1.121524 55.442286-19.260952 55.832381-54.272 0.390095-39.009524-16.432762-56.515048-55.344762-57.392762zM860.647619 297.935238c-255.75619-18.139429-454.656 187.63581-391.216762 438.125714-52.955429-5.948952-104.301714-8.143238-153.892571-18.529523-37.790476-7.899429-67.242667 4.388571-97.913905 20.431238l-83.919238 43.203047 41.203809-123.270095C112.64 614.4 61.147429 561.249524 29.45219 491.032381c-49.590857-109.714286-35.011048-214.747429 32.23162-310.467048C155.306667 47.299048 292.08381-3.072 449.487238 0.146286c121.417143 2.535619 228.10819 48.469333 319.390476 128.975238 43.983238 38.814476 88.746667 120.832 91.769905 168.764952z m-123.318857 287.061333c31.207619 0.195048 54.467048-19.69981 52.662857-47.786666-1.950476-29.45219-21.552762-41.20381-49.249524-41.984-27.40419-0.78019-51.590095 19.748571-53.00419 44.958476-1.121524 19.602286 26.672762 44.665905 49.590857 44.860952v-0.048762z m292.766476-48.615619c-0.78019-22.77181-25.453714-41.74019-53.881905-41.301333-31.597714 0.487619-52.028952 20.187429-50.078476 48.37181 1.219048 18.822095 31.597714 44.080762 51.44381 42.861714 26.819048-1.706667 53.296762-26.86781 52.516571-49.932191z m57.539048 444.562286c-22.918095-12.190476-44.909714-26.672762-68.949334-35.888762-19.21219-7.41181-42.910476-15.945143-61.19619-11.068952-120.100571 31.939048-232.350476 13.799619-333.04381-55.198476-137.264762-93.866667-180.857905-268.288-79.238095-407.79581 105.179429-144.384 318.073905-179.151238 468.894476-112.64 93.476571 41.20381 163.644952 105.569524 193.584762 206.409143 28.672 96.256 1.755429 178.712381-66.31619 249.465905-19.992381 20.626286-43.105524 38.326857-61.293715 60.318476-6.826667 8.289524-6.972952 25.258667-4.63238 37.156571 4.096 20.967619 12.53181 41.20381 19.114666 61.68381l-6.92419 7.558095z" fill="#00C80D" p-id="27431"></path></svg>