<?xml version="1.0" standalone="no"?><!DOCTYPE svg PUBLIC "-//W3C//DTD SVG 1.1//EN" "http://www.w3.org/Graphics/SVG/1.1/DTD/svg11.dtd"><svg t="1573619142881" class="icon" viewBox="0 0 1024 1024" version="1.1" xmlns="http://www.w3.org/2000/svg" p-id="23503" xmlns:xlink="http://www.w3.org/1999/xlink" width="64" height="64"><defs><style type="text/css"></style></defs><path d="M590 596.25s18.72-34.77 40.12-99c21.4-66.86 24.07-101.63 24.07-101.63L485.67 393v-64.2l203.26-2.67v-45.47H485.67v-104.3h-99v104.3H196.83v45.47l189.89-2.67V393H234.27v37.44h315.59s-2.67 29.42-16 66.86-24.07 69.54-24.07 69.54S362.65 508 285.09 508s-173.84 34.77-181.86 136.4S146 802.18 223.57 820.9s144.42 0 203.26-34.77C488.35 754 547.18 676.48 547.18 676.48L860.1 847.64s18.72-32.09 34.77-64.19 26.74-66.86 26.74-66.86L590 596.25zM266.36 767.41c-109.65 0-133.72-61.51-133.72-104.3s24.07-90.93 117.68-99S472.3 639 472.3 639s-93.61 128.41-205.94 128.41z" fill="#00A7FF" p-id="23504"></path></svg>