<?xml version="1.0" standalone="no"?><!DOCTYPE svg PUBLIC "-//W3C//DTD SVG 1.1//EN" "http://www.w3.org/Graphics/SVG/1.1/DTD/svg11.dtd"><svg t="1577951839047" class="icon" viewBox="0 0 1024 1024" version="1.1" xmlns="http://www.w3.org/2000/svg" p-id="2483" xmlns:xlink="http://www.w3.org/1999/xlink" width="128" height="128"><defs><style type="text/css"></style></defs><path d="M918.706825 799.181549c-6.111032-18.342088-16.474911-32.779988-31.08864-43.317697-14.611731-10.531715-31.425311-19.36409-50.458724-26.498123-19.013432-7.133034-38.558345-13.422892-58.601771-18.857585-20.048421-5.433694-38.558345-11.553717-55.555747-18.348082-19.019426-7.473701-33.800991-15.966408-44.325713-25.47712-10.538708-9.515707-18.356074-19.534923-23.446103-30.071633-5.097022-10.52672-7.981206-21.064429-8.664539-31.595145-0.682334-10.533713 0-20.894595 2.03801-31.086642 2.721342-16.990408 8.155036-29.044636 16.306076-36.178669 8.156035-7.141026 18.680757-15.798572 31.595146-25.991618 5.441686-4.759352 10.368874-11.383883 14.782563-19.879586a253.536406 253.536406 0 0 0 11.715559-25.98962c3.404675-10.195044 6.802357-21.071422 10.201038-32.618146 6.796363-2.043005 13.246064-5.779356 19.36409-11.215048 5.434693-4.752359 10.360882-11.37689 14.77657-19.872593 4.418685-8.494704 7.308862-19.878587 8.669534-34.146654 1.353678-10.87538 1.184843-20.041428-0.508504-27.521124-1.704336-7.471703-3.910181-13.583735-6.62453-18.343086-2.721342-5.439688-6.457694-9.855376-11.216047-13.252059 0-27.857795-1.705335-55.379918-5.097023-82.556379-3.396683-23.789768-9.177038-48.758384-17.327079-74.924831-8.155036-26.155458-21.069424-50.109065-38.729178-71.856827-7.472702-9.509713-17.834583-19.019426-31.093635-28.536133-13.253058-9.514708-28.368297-18.003419-45.356707-25.484113-16.981417-7.478697-35.156667-13.419895-54.526751-17.840577-19.365089-4.412691-38.898014-6.618537-58.61376-6.618537-15.621744 0-31.765979 1.190837-48.415719 3.566517-16.643746 2.37568-33.294486 6.965198-49.946224 13.753569-16.642747 6.796363-32.954818 16.144234-48.922225 28.03662-15.966408 11.884394-30.403309 27.345296-43.317697 46.37771-14.262072 19.702759-24.970615 42.12686-32.103649 67.265311-7.133034 25.138451-12.068215 48.583555-14.782564 70.331317-3.390689 25.820784-4.757354 51.643567-4.074022 77.464351-6.119024 6.795364-10.537709 13.929397-13.246064 21.409093-2.721342 6.78937-4.589518 14.938412-5.612519 24.455118-1.022002 9.515707 0.508503 20.048421 4.589518 31.594146 3.396683 11.554716 7.473701 20.387091 12.224063 26.506115 4.759352 6.112031 9.178037 10.869385 13.259051 14.268067 4.752359 3.390689 9.510712 5.780355 14.263071 7.133034 3.403676 11.554716 6.802357 22.424101 10.19904 32.618146a355.05127 355.05127 0 0 0 11.208055 25.990619c4.07602 8.494704 8.840367 15.121233 14.276059 19.88558 11.552718 9.496726 22.078439 18.849592 31.595145 28.021635 9.509713 9.171044 14.945405 21.572933 16.31207 37.20167 0.67634 10.87538 1.015009 20.730755 1.015009 29.564129 0 8.834373-1.698341 17.320086-5.096023 25.484113-3.397682 8.148043-8.840367 16.298084-16.306076 24.45312-7.479696 8.157034-18.349081 16.651739-32.618147 25.490108-18.348082 11.541729-39.412511 20.381097-63.19129 26.500121-23.790767 6.112031-46.723372 13.07623-68.808803 20.894595-22.083434 7.810373-41.443528 18.342088-58.093269 31.595145-16.64974 13.252059-26.667957 32.447313-30.071633 57.584765-6.796363 44.171863-8.318876 80.1797-4.583524 108.039493 3.738349 27.865787 9.003208 44.515528 15.805565 49.946224 4.068027 3.403676 13.922404 6.795364 29.551142 10.19904 15.627739 3.390689 34.648164 6.795364 57.078259 10.186053 22.417108 3.397682 47.392718 6.626529 74.920835 9.68654a3274.836917 3274.836917 0 0 0 83.063883 8.155036c27.857795 2.37568 54.871415 4.250849 81.030868 5.604527 26.161452 1.353678 49.092059 2.037011 68.796816 2.037011 19.715746 0 42.98702-0.683333 69.822814-2.037011 26.842786-1.354677 54.872414-3.228847 84.091879-5.604527a2429.367571 2429.367571 0 0 0 87.144897-8.670532c28.880796-3.390689 55.04025-7.296874 78.485354-11.715559 23.447102-4.41369 43.143867-9.008203 59.110275-13.767555 15.973401-4.757354 25.651949-9.503719 29.049632-14.261074 4.759352-7.479696 8.332862-18.342088 10.708542-32.625139 2.37568-14.260074 3.560523-29.550142 3.560523-45.862213 0-16.306076-0.84018-32.449311-2.544515-48.415719-1.69934-15.969405-4.243856-29.383305-7.642537-40.261682M535.295251 489.82066c-7.766416 7.927259-17.096304 11.891387-27.998658 11.891387s-20.154318-3.964129-27.750899-11.891387c-7.602576-7.930256-11.39687-17.515895-11.396871-28.74393 0-11.234029 3.794295-20.734751 11.396871-28.492176 7.596581-7.759422 16.678712-11.646626 27.255383-11.646626 11.227036 0 20.727758 3.887204 28.494174 11.646626 7.759422 7.758423 11.645627 17.258146 11.645627 28.492176 0 11.228035-3.887204 20.813674-11.645627 28.74393m79.286571-242.324356c-2.810256 8.91929-7.355817 18.010412-13.627691 27.254385-3.639446 5.622509-12.388901 14.866482-26.262353 27.750899-12.884418 12.559735-20.983508 21.394107-24.281288 26.511111-3.306771 5.126993-6.117026 11.893385-8.425772 20.318158-2.31374 8.424773-3.802287 20.239235-4.459645 35.432398h-61.447992v-10.902354c0-20.813674 3.71737-39.807126 11.150111-56.988347 7.43374-17.174228 19.403052-33.364418 35.926915-48.563574 15.857514-14.533807 25.43616-24.530045 28.742931-29.979723 3.29678-5.451676 4.953163-11.97031 4.953163-19.574884 0-9.91232-4.048047-18.335095-12.140144-25.273319-8.098092-6.937225-18.915528-10.406837-32.458303-10.406837-13.87545 0-25.27232 4.212886-34.192609 12.637658-8.920289 8.423774-13.379934 19.410045-13.379933 32.953819h-59.466927c-0.331676-30.057647 9.740488-55.006283 30.229479-74.826927 20.148324-19.822642 46.74535-29.733963 79.784086-29.733963 21.137358 0 39.224695 4.050045 54.26201 12.141143 15.028324 8.099091 27.006626 19.821643 35.925916 35.183641 8.921288 15.361998 13.379934 31.638103 13.379933 48.812332 0.000999 9.251965-1.408624 18.334096-4.211887 27.254384" p-id="2484"></path></svg>