<?xml version="1.0" standalone="no"?><!DOCTYPE svg PUBLIC "-//W3C//DTD SVG 1.1//EN" "http://www.w3.org/Graphics/SVG/1.1/DTD/svg11.dtd"><svg t="1582366445801" class="icon" viewBox="0 0 1024 1024" version="1.1" xmlns="http://www.w3.org/2000/svg" p-id="3305" width="200" height="200" xmlns:xlink="http://www.w3.org/1999/xlink"><defs><style type="text/css"></style></defs><path d="M512 512m-512 0a512 512 0 1 0 1024 0 512 512 0 1 0-1024 0Z" fill="#ED546B" p-id="3306"></path><path d="M512 500.266667c-53.845333 0-97.536-41.941333-97.536-93.696 0-51.712 43.690667-93.696 97.536-93.696s97.536 41.984 97.536 93.696c0 51.754667-43.690667 93.696-97.536 93.696z m43.562667 29.610666a140.16 140.16 0 0 0-17.962667 68.864c0 45.909333 21.973333 86.656 55.893333 112.384H341.333333c0-103.509333 76.373333-187.392 170.666667-187.392 15.061333 0 29.653333 2.133333 43.562667 6.144z m170.026666 164.138667l-56.618666-112.426667-17.408 42.666667h-46.08v-34.133333h23.125333l37.12-90.88 57.984 115.2 15.232-34.176h53.504v34.133333h-31.36l-35.498667 79.616z" fill="#FFFFFF" p-id="3307"></path></svg>