<?xml version="1.0" standalone="no"?><!DOCTYPE svg PUBLIC "-//W3C//DTD SVG 1.1//EN" "http://www.w3.org/Graphics/SVG/1.1/DTD/svg11.dtd"><svg class="icon" width="128px" height="128.00px" viewBox="0 0 1024 1024" version="1.1" xmlns="http://www.w3.org/2000/svg"><path d="M127.2832 793.3952l183.1936-43.1104-4.8128-10.5472 22.2208-33.28c5.4272-8.2944 16.9984-9.728 24.4736-3.072l2.2528 2.048v-59.5968l-11.9808-9.0112a98.137088 98.137088 0 0 1-39.1168-74.0352l-5.7344-125.7472-24.8832 24.8832s0-81.7152-32.6656-114.3808c0 0-20.3776-138.3424 88.8832-219.0336l-24.1664-16.4864C354.6112 86.1184 450.56 70.656 501.76 69.632c88.9856-1.536 139.8784 31.5392 163.5328 62.5664 107.2128 16.1792 96.768 215.3472 96.8704 215.3472-41.7792 45.9776-32.6656 114.3808-32.6656 114.3808l-23.2448-36.0448-6.2464 136.9088c-1.3312 29.2864-15.6672 56.4224-39.1168 74.0352l-12.0832 9.1136v59.4944l2.2528-2.048c7.3728-6.656 19.0464-5.2224 24.4736 3.072l22.2208 33.28-4.7104 10.4448 183.1936 43.1104c18.0224 4.3008 32.768 15.7696 41.5744 30.9248C984.4736 737.5872 1024 629.1456 1024 512 1024 229.6832 795.3408 0 512 0 229.2736 0 0 229.2736 0 512c0 111.2064 35.5328 214.4256 96.0512 298.5984 8.3968-8.2944 19.0464-14.336 31.232-17.2032z" fill="#82CFF4" /><path d="M415.8464 760.5248l85.9136 77.312 147.0464-132.4032v-59.4944l-0.2048 0.1024c-4.608 6.8608-89.088 129.9456-232.7552 114.4832z" fill="#E5AD77" /><path d="M583.3728 1001.2672c0-9.1136 7.3728-16.384 16.384-16.384h109.056c83.1488-34.6112 155.0336-90.5216 208.9984-160.6656-8.8064-15.1552-23.552-26.624-41.5744-30.9248l-183.1936-43.1104-65.4336 143.9744c-5.7344 12.5952-21.8112 16.1792-32.4608 7.3728-19.5584-16.0768-37.6832-29.184-52.6336-39.1168v6.144c0 6.7584-3.6864 12.6976-9.216 15.872l9.216 133.12H460.8l9.3184-133.12c-5.5296-3.072-9.3184-9.0112-9.3184-15.872v-6.0416c-14.9504 9.9328-33.0752 22.9376-52.5312 39.0144-10.6496 8.8064-26.7264 5.2224-32.4608-7.3728l-65.3312-143.872-183.1936 43.1104c-12.1856 2.8672-22.8352 8.9088-31.232 17.2032 77.7216 108.1344 196.7104 184.9344 334.336 206.9504h152.8832v-16.2816z" fill="#DDF0FC" /><path d="M648.6016 646.0416l-55.296 41.472c-16.9984 12.8-37.6832 19.6608-58.88 19.6608h-65.3312c-21.2992 0-41.8816-6.9632-58.88-19.6608l-55.6032-41.6768v59.5968l61.2352 55.0912c143.6672 15.4624 228.1472-107.6224 232.7552-114.4832z" fill="#D19A6D" /><path d="M697.6512 404.5824c-1.3312-27.8528-9.4208-117.3504-60.2112-146.944-1.536 0.8192-3.072 1.7408-4.7104 2.56-31.4368 40.7552-119.7056 54.6816-180.1216 54.6816-32.768 0-49.0496 32.6656-49.0496 49.152V560.128c0 23.4496 5.4272 45.568 13.9264 65.2288h231.2192v20.48l12.0832-9.1136c23.4496-17.6128 37.7856-44.7488 39.1168-74.0352l6.2464-136.9088-3.4816-5.3248c-2.9696-4.7104-4.7104-10.1376-5.0176-15.872z" fill="#F8BF94" /><path d="M648.6016 646.0416l0.2048-0.1024v-0.1024c0-0.1024-0.1024 0-0.2048 0.2048z" fill="#F8BF94" /><path d="M648.8064 625.3568H417.5872c20.992 48.64 60.928 81.8176 84.1728 81.8176h32.6656c21.1968 0 41.8816-6.8608 58.88-19.6608l55.296-41.472c0.1024-0.2048 0.2048-0.3072 0.2048-0.3072v-20.3776z" fill="#F8BF94" /><path d="M417.5872 625.3568c-8.4992-19.6608-13.9264-41.7792-13.9264-65.2288V364.032c0-16.4864 16.2816-49.152 49.0496-49.152 60.3136 0 148.6848-14.0288 180.1216-54.6816-25.2928 13.1072-61.44 21.0944-111.5136 21.9136h-8.3968c-51.0976 0-101.0688-17.3056-158.3104 16.384-61.6448 36.352-49.0496 130.7648-49.0496 130.7648l-7.7824 7.7824 5.7344 125.7472c1.3312 29.2864 15.6672 56.4224 39.1168 74.0352l11.9808 9.0112v-20.48h62.976z" fill="#E29B71" /><path d="M469.0944 707.1744H501.76c-23.2448 0-63.1808-33.1776-84.1728-81.8176h-62.976v20.48l55.6032 41.6768c16.9984 12.6976 37.5808 19.6608 58.88 19.6608z" fill="#E29B71" /><path d="M479.0272 886.784c-3.2768 0-6.3488-0.8192-8.9088-2.3552l-9.3184 133.12h81.7152l-9.216-133.12c-2.6624 1.536-5.7344 2.3552-9.0112 2.3552h-45.2608z" fill="#30303A" /><path d="M501.6576 870.5024h30.72l0.9216 13.9264c5.5296-3.1744 9.216-9.0112 9.216-15.872v-6.144c-6.8608-4.608-13.1072-8.4992-18.432-11.776l-22.4256 19.8656zM501.6576 870.5024l-22.3232-19.8656c-5.4272 3.2768-11.6736 7.2704-18.5344 11.8784v6.0416c0 6.8608 3.7888 12.8 9.3184 15.872l0.9216-13.9264h30.6176z" fill="#454755" /><path d="M479.3344 850.6368l22.3232 19.8656 22.4256-19.8656c-13.312-8.192-21.6064-12.3904-22.3232-12.6976-0.7168 0.3072-9.0112 4.5056-22.4256 12.6976zM501.6576 870.5024H471.04l-0.9216 13.9264c2.6624 1.536 5.7344 2.3552 8.9088 2.3552H524.288c3.2768 0 6.3488-0.9216 9.0112-2.3552l-0.9216-13.9264h-30.72z" fill="#454755" /><path d="M361.0624 748.3392l11.1616 7.0656-6.144-5.5296c-1.6384-0.4096-3.2768-1.024-5.0176-1.536zM344.3712 737.6896l10.24 6.5536v-38.8096l-2.2528-2.048c-7.4752-6.656-19.0464-5.2224-24.4736 3.072l-22.2208 33.28 4.8128 10.5472 19.0464-4.5056c5.7344-1.4336 10.752-4.3008 14.848-8.0896z" fill="#B4E0F9" /><path d="M501.76 837.8368l-85.9136-77.312c-15.872-1.7408-32.4608-5.12-49.664-10.5472l6.144 5.5296L501.76 837.8368z" fill="#B4E0F9" /><path d="M464.896 837.8368l-92.672-82.432-11.1616-7.0656c-2.1504-0.7168-4.3008-1.4336-6.4512-2.2528v-1.8432l-10.24-6.5536c-4.096 3.7888-9.1136 6.656-14.848 8.0896l-19.0464 4.5056L375.808 894.1568c5.7344 12.5952 21.8112 16.1792 32.4608 7.3728 19.456-16.0768 37.5808-29.0816 52.5312-39.0144v-24.6784h4.096z" fill="#B4E0F9" /><path d="M501.6576 837.8368l-129.4336-82.432 92.672 82.432h36.7616zM354.6112 739.7376v4.5056l6.4512 4.096c1.6384 0.512 3.3792 1.1264 5.0176 1.6384l-11.4688-10.24z" fill="#B4E0F9" /><path d="M366.08 749.9776c17.3056 5.4272 33.8944 8.8064 49.664 10.5472l-61.2352-55.0912v34.304l11.5712 10.24zM354.6112 746.0864c2.1504 0.8192 4.3008 1.536 6.4512 2.2528l-6.4512-4.096v1.8432zM464.896 837.8368h-4.096v24.6784c6.8608-4.608 13.1072-8.4992 18.5344-11.8784L464.896 837.8368z" fill="#B4E0F9" /><path d="M501.6576 837.8368H464.896l14.4384 12.8c13.4144-8.192 21.7088-12.3904 22.3232-12.8zM675.5328 706.4576c-5.4272-8.2944-17.1008-9.728-24.4736-3.072l-2.2528 2.048v34.304l-40.3456 35.84 57.0368-33.28c2.6624 1.4336 5.4272 2.6624 8.4992 3.3792l19.0464 4.5056 4.7104-10.4448-22.2208-33.28z" fill="#B4E0F9" /><path d="M501.76 837.8368l106.7008-62.2592 40.3456-35.84v-34.304L501.76 837.8368z" fill="#B4E0F9" /><path d="M665.4976 742.2976l-57.0368 33.28-70.0416 62.2592h4.096v24.576c14.9504 9.9328 33.0752 23.04 52.6336 39.1168 10.6496 8.8064 26.7264 5.2224 32.4608-7.3728l65.4336-143.9744-19.0464-4.5056c-3.072-0.7168-5.8368-1.9456-8.4992-3.3792z" fill="#B4E0F9" /><path d="M538.4192 837.8368l70.0416-62.2592L501.76 837.8368zM538.4192 837.8368l-14.336 12.8c5.4272 3.2768 11.5712 7.2704 18.432 11.776v-24.576h-4.096z" fill="#B4E0F9" /><path d="M501.76 837.8368c0.7168 0.3072 9.0112 4.608 22.3232 12.6976l14.336-12.8-36.6592 0.1024zM501.76 837.8368h-0.1024zM501.6576 837.8368h0.1024-0.1024zM501.76 837.8368c-0.1024 0-0.1024 0 0 0z" fill="#B4E0F9" /><path d="M649.6256 249.5488h64.6144l-7.9872 176.3328 23.2448 36.0448s-9.1136-68.4032 32.6656-114.3808c-0.1024 0 10.4448-199.168-96.8704-215.3472 10.0352 13.1072 15.1552 25.9072 16.1792 35.5328 3.3792 31.9488-4.9152 61.0304-31.8464 81.8176z" fill="#785550" /><path d="M649.6256 249.5488c-3.6864 2.8672-7.7824 5.5296-12.1856 8.0896 50.688 29.5936 58.7776 119.0912 60.2112 146.944 0.3072 5.7344 2.048 11.1616 5.12 15.9744l3.4816 5.3248 7.9872-176.3328h-64.6144z" fill="#785550" /><path d="M292.9664 249.5488h41.1648c36.9664-12.4928 69.0176-8.3968 100.7616 0h181.248l-15.36-108.2368c25.1904-9.4208 46.592-11.8784 64.512-9.1136C641.6384 101.1712 590.7456 68.096 501.76 69.632c-51.2 1.024-147.1488 16.4864-196.8128 42.3936l24.1664 16.4864c-35.0208 48.64-37.888 95.9488-36.1472 121.0368zM616.1408 249.5488h-181.248 181.248zM635.392 256.512c-0.8192 1.2288-1.7408 2.4576-2.6624 3.6864 1.6384-0.8192 3.1744-1.6384 4.7104-2.56-0.6144-0.4096-1.3312-0.7168-2.048-1.1264zM292.9664 249.5488h41.1648z" fill="#5A4146" /><path d="M616.1408 249.5488h-181.248c42.2912 11.264 84.1728 30.4128 136.9088 28.5696-15.0528 2.1504-31.744 3.584-50.5856 3.8912 50.0736-0.8192 86.3232-8.8064 111.5136-21.9136 0.9216-1.2288 1.8432-2.4576 2.6624-3.6864-5.8368-3.072-12.1856-5.4272-19.2512-6.8608zM521.0112 282.0096h-3.072c1.024 0.1024 2.048 0 3.072 0zM295.424 267.8784c13.6192-8.192 26.4192-14.2336 38.7072-18.3296h-41.1648c0.7168 11.5712 2.4576 18.3296 2.4576 18.3296zM600.7808 141.312l15.36 108.2368h33.4848c26.9312-20.7872 35.2256-49.8688 31.8464-81.8176-1.024-9.6256-6.144-22.4256-16.1792-35.5328-17.92-2.7648-39.3216-0.3072-64.512 9.1136z" fill="#5A4146" /><path d="M639.3856 249.5488c-1.1264 2.3552-2.4576 4.7104-3.9936 6.9632 0.7168 0.4096 1.3312 0.7168 2.048 1.1264 4.4032-2.56 8.4992-5.2224 12.1856-8.0896h-33.4848 23.2448z" fill="#5A4146" /><path d="M616.1408 249.5488c7.0656 1.4336 13.4144 3.7888 19.2512 6.9632 1.536-2.2528 2.7648-4.608 3.9936-6.9632h-23.2448z" fill="#5A4146" /><path d="M518.0416 282.112h-5.12 5.12zM521.216 282.0096h-0.2048 0.2048zM292.9664 249.5488c-1.6384-25.088 1.2288-72.3968 36.1472-121.0368-109.2608 80.6912-88.8832 219.0336-88.8832 219.0336 32.6656 32.6656 32.6656 114.3808 32.6656 114.3808l24.8832-24.8832-8.4992-187.4944h3.6864zM334.1312 249.5488h100.7616c-31.744-8.3968-63.7952-12.4928-100.7616 0zM289.28 249.5488h3.6864zM334.1312 249.5488h100.7616z" fill="#433532" /><path d="M354.6112 298.496c57.2416-33.6896 107.2128-16.384 158.3104-16.384h8.3968c18.8416-0.3072 35.5328-1.7408 50.5856-3.8912-52.736 1.8432-94.6176-17.3056-136.9088-28.5696h-100.7616c-12.288 4.096-25.088 10.1376-38.7072 18.3296 0 0-1.7408-6.7584-2.4576-18.3296h-3.6864l8.4992 187.4944 7.7824-7.7824c-0.1024-0.1024-12.6976-94.5152 48.9472-130.8672z" fill="#433532" /><path d="M583.3728 1017.6512h9.6256c0.2048 0 0.4096-0.1024 0.6144-0.1024l-10.24 0.1024zM599.7568 984.8832c-9.0112 0-16.384 7.2704-16.384 16.384v16.2816h10.24c40.2432-6.4512 78.7456-17.5104 115.2-32.6656H599.7568z" fill="#B4E0F9" /></svg>