<?xml version="1.0" standalone="no"?><!DOCTYPE svg PUBLIC "-//W3C//DTD SVG 1.1//EN" "http://www.w3.org/Graphics/SVG/1.1/DTD/svg11.dtd"><svg class="icon" width="128px" height="128.00px" viewBox="0 0 1024 1024" version="1.1" xmlns="http://www.w3.org/2000/svg"><path d="M512 0c283.30496 0 512 228.69504 512 512s-228.69504 512-512 512S0 795.30496 0 512 228.69504 0 512 0z" fill="#F4A5E0" /><path d="M785.06496 372.05504l10.24 566.60992-238.92992-71.68L542.72 768l242.34496-395.94496z m-515.40992 0l-20.48 522.24L498.34496 870.4l-10.24-98.98496-218.44992-399.36z" fill="#312B28" /><path d="M512 1024c116.05504 0 225.28-40.96 314.02496-105.81504-10.24-17.06496-34.12992-37.54496-68.26496-54.60992-54.61504-27.31008-116.05504-27.31008-116.05504-27.31008l-133.12 40.96-102.4-40.96S337.92 839.68 286.72 870.4c-34.13504 20.48-61.44 44.37504-71.68 58.02496C296.96 986.45504 402.77504 1024 512 1024z" fill="#F7F9FB" /><path d="M464.21504 747.52h112.64v75.09504l126.28992 20.48s-78.50496 51.2-184.32 51.2c-92.16 0-163.84-54.61504-163.84-54.61504l109.23008-20.48v-71.68z" fill="#EFD0AF" /><path d="M296.96 314.02496l-3.41504 112.64s6.83008 88.75008 17.07008 150.19008c6.82496 40.96 23.88992 75.08992 54.60992 112.64 40.96 54.60992 119.47008 95.56992 157.01504 95.56992 40.96 0 105.81504-34.12992 146.77504-85.32992 23.88992-30.72 61.44-81.92 68.26496-119.47008C750.93504 501.76 757.76 368.64 757.76 368.64l-75.09504-102.4L296.96 314.02496z" fill="#F4DBBA" /><path d="M508.58496 143.36C307.2 143.36 266.24 314.02496 266.24 365.22496c0 81.92-6.82496 197.97504-6.82496 197.97504s20.48-78.50496 20.48-75.09504c3.40992 13.65504 3.40992 47.79008 3.40992 47.79008C286.72 535.89504 317.44 552.96 317.44 552.96l-3.41504-126.29504s58.03008 3.41504 109.23008-20.48C464.21504 385.70496 471.04 307.2 471.04 307.2s23.89504 88.74496 85.33504 102.4c58.02496 13.65504 157.00992-13.65504 163.84 27.30496 13.64992 58.03008 6.82496 85.33504 3.40992 122.88l23.89504-13.64992s3.41504-34.13504 6.82496-47.79008c3.41504-20.48 13.65504 54.61504 13.65504 51.2 0-17.06496 17.06496-95.56992 17.06496-180.90496 0-105.81504-98.98496-225.28-276.48-225.28z" fill="#312B28" /><path d="M307.2 491.52s-10.24-23.89504-30.72-10.24c-10.24 6.82496-13.65504 40.96-6.82496 58.02496 6.82496 23.89504 17.06496 30.72 23.88992 37.55008 6.83008 3.40992 20.48 3.40992 20.48 3.40992L307.2 491.52z m436.90496-17.06496s10.24-3.41504 20.48 3.40992c10.24 6.83008 13.65504 40.96 6.83008 58.03008-6.83008 23.88992-17.07008 30.72-23.89504 37.54496-6.82496 6.82496-20.48 6.82496-20.48 6.82496l17.06496-105.80992z" fill="#F4DBBA" /><path d="M518.82496 692.90496c-17.06496 0-34.12992-6.82496-47.78496-20.48 0 0 0-3.40992-3.41504-3.40992-3.40992 0 0-3.41504 0-3.41504 3.41504-3.41504 6.83008-3.41504 6.83008 0 23.88992 20.48 61.44 20.48 85.32992 0H563.2s3.41504 0 3.41504 3.41504c3.40992 3.40992 3.40992 6.82496 0 6.82496-10.24 10.24-27.31008 17.06496-47.79008 17.06496z" fill="#E2C6A3" /></svg>