<?xml version="1.0" standalone="no"?><!DOCTYPE svg PUBLIC "-//W3C//DTD SVG 1.1//EN" "http://www.w3.org/Graphics/SVG/1.1/DTD/svg11.dtd"><svg t="1582372292606" class="icon" viewBox="0 0 1024 1024" version="1.1" xmlns="http://www.w3.org/2000/svg" p-id="5793" xmlns:xlink="http://www.w3.org/1999/xlink" width="128" height="128"><defs><style type="text/css"></style></defs><path d="M512 512m-512 0a512 512 0 1 0 1024 0 512 512 0 1 0-1024 0Z" fill="#3D84FF" opacity=".1" p-id="5794"></path><path d="M701.553778 670.378667c-61.952 5.973333-127.459556 31.402667-196.551111 76.288-78.876444-41.528889-144.952889-64.170667-198.257778-67.925334a201.415111 201.415111 0 0 1 141.027555-158.492444 122.908444 122.908444 0 1 1 114.432 0 201.472 201.472 0 0 1 139.377778 150.129778z" fill="#3D84FF" p-id="5795"></path><path d="M262.656 636.444444a28.444444 28.444444 0 1 0 12.259556 55.552c46.307556-10.211556 119.182222 11.719111 216.462222 68.096a28.444444 28.444444 0 0 0 30.776889-1.450666c78.478222-56.092444 149.902222-80.696889 214.471111-75.235556a28.444444 28.444444 0 0 0 4.807111-56.689778c-75.008-6.343111-154.168889 19.114667-237.340445 75.207112-100.977778-56.348444-180.878222-78.848-241.436444-65.479112z" fill="#99BEFF" p-id="5796"></path></svg>