<?xml version="1.0" standalone="no"?><!DOCTYPE svg PUBLIC "-//W3C//DTD SVG 1.1//EN" "http://www.w3.org/Graphics/SVG/1.1/DTD/svg11.dtd"><svg t="1582372271953" class="icon" viewBox="0 0 1024 1024" version="1.1" xmlns="http://www.w3.org/2000/svg" p-id="4586" xmlns:xlink="http://www.w3.org/1999/xlink" width="128" height="128"><defs><style type="text/css"></style></defs><path d="M512 512m-512 0a512 512 0 1 0 1024 0 512 512 0 1 0-1024 0Z" fill="#B3D465" p-id="4587"></path><path d="M689.732267 665.344c0 99.2768-71.1168 77.038933-169.2672 77.038933-98.1504 0-186.197333 22.237867-186.197334-77.038933 0-73.301333 43.451733-136.226133 105.659734-164.1984a120.200533 120.200533 0 0 1-54.869334-101.154133c0-66.269867 53.026133-119.995733 118.408534-119.995734 65.3824 0 118.391467 53.725867 118.391466 119.995734a120.234667 120.234667 0 0 1-48.605866 96.802133 179.541333 179.541333 0 0 1 116.48 168.5504z" fill="#FFFFFF" p-id="4588"></path><path d="M497.988267 494.933333h14.2336l14.2336 34.133334-14.2336 34.133333 28.4672 119.466667-42.7008 34.133333-42.683734-34.133333 28.450134-119.466667-14.216534-34.133333 14.216534-34.133334h14.2336z" fill="#B3D465" p-id="4589"></path></svg>